<?xml version="1.0"?>
<svg xmlns="http://www.w3.org/2000/svg" version="1.1" width="808.4385375976562pt" height="503.0386047363281pt" viewBox="-9.419291338582678 -9.419291338582678 808.4385620778003 503.0386015599168" preserveAspectRatio="none" xmlns:xlink="http://www.w3.org/1999/xlink">
  <defs>
  </defs>
  <path d="M240.99542236328125,68.65351867675781 L268.16217041015625,49.69148635864258 " stroke="#6E6E6E" fill="none" stroke-width="0.75" stroke-opacity="1" />
  <path d="M272.8362121582031,46.42906951904297 L269.43280029296875,51.51190185546875 L266.89154052734375,47.871070861816406 L272.8362121582031,46.42906951904297 " stroke="none" fill="#6E6E6E" fill-rule="evenodd" stroke-width="0" fill-opacity="1" />
  <path d="M272.8362121582031,46.42906951904297 L269.43280029296875,51.51190185546875 L266.89154052734375,47.871070861816406 L272.8362121582031,46.42906951904297 " stroke="#6E6E6E" fill="none" stroke-width="0.75" stroke-opacity="1" />
  <path d="M253.1999969482422,23.69999885559082 L262.4999694824219,23.69999885559082 " stroke="#6E6E6E" fill="none" stroke-width="0.75" stroke-opacity="1" />
  <path d="M268.1999816894531,23.69999885559082 L262.4999694824219,25.920000076293945 L262.4999694824219,21.479999542236328 L268.1999816894531,23.69999885559082 " stroke="none" fill="#6E6E6E" fill-rule="evenodd" stroke-width="0" fill-opacity="1" />
  <path d="M268.1999816894531,23.69999885559082 L262.4999694824219,25.920000076293945 L262.4999694824219,21.479999542236328 L268.1999816894531,23.69999885559082 " stroke="#6E6E6E" fill="none" stroke-width="0.75" stroke-opacity="1" />
  <path d="M342.5999755859375,23.69999885559082 L351.89996337890625,23.69999885559082 " stroke="#6E6E6E" fill="none" stroke-width="0.75" stroke-opacity="1" />
  <path d="M357.5999755859375,23.69999885559082 L351.89996337890625,25.920000076293945 L351.89996337890625,21.479999542236328 L357.5999755859375,23.69999885559082 " stroke="none" fill="#6E6E6E" fill-rule="evenodd" stroke-width="0" fill-opacity="1" />
  <path d="M357.5999755859375,23.69999885559082 L351.89996337890625,25.920000076293945 L351.89996337890625,21.479999542236328 L357.5999755859375,23.69999885559082 " stroke="#6E6E6E" fill="none" stroke-width="0.75" stroke-opacity="1" />
  <path d="M62.19542694091797,193.4535369873047 L89.36219787597656,174.49147033691406 " stroke="#6E6E6E" fill="none" stroke-width="0.75" stroke-opacity="1" />
  <path d="M94.0362319946289,171.2290496826172 L90.63282012939453,176.3118896484375 L88.09156799316406,172.67105102539062 L94.0362319946289,171.2290496826172 " stroke="none" fill="#6E6E6E" fill-rule="evenodd" stroke-width="0" fill-opacity="1" />
  <path d="M94.0362319946289,171.2290496826172 L90.63282012939453,176.3118896484375 L88.09156799316406,172.67105102539062 L94.0362319946289,171.2290496826172 " stroke="#6E6E6E" fill="none" stroke-width="0.75" stroke-opacity="1" />
  <path d="M74.39999389648438,148.5 L83.69999694824219,148.5 " stroke="#6E6E6E" fill="none" stroke-width="0.75" stroke-opacity="1" />
  <path d="M89.39999389648438,148.49998474121094 L83.69998931884766,150.71998596191406 L83.69998931884766,146.27999877929688 L89.39999389648438,148.49998474121094 " stroke="none" fill="#6E6E6E" fill-rule="evenodd" stroke-width="0" fill-opacity="1" />
  <path d="M89.39999389648438,148.49998474121094 L83.69998931884766,150.71998596191406 L83.69998931884766,146.27999877929688 L89.39999389648438,148.49998474121094 " stroke="#6E6E6E" fill="none" stroke-width="0.75" stroke-opacity="1" />
  <path d="M163.79998779296875,148.5 L173.09999084472656,148.5 " stroke="#6E6E6E" fill="none" stroke-width="0.75" stroke-opacity="1" />
  <path d="M178.79998779296875,148.49998474121094 L173.0999755859375,150.71998596191406 L173.0999755859375,146.27999877929688 L178.79998779296875,148.49998474121094 " stroke="none" fill="#6E6E6E" fill-rule="evenodd" stroke-width="0" fill-opacity="1" />
  <path d="M178.79998779296875,148.49998474121094 L173.0999755859375,150.71998596191406 L173.0999755859375,146.27999877929688 L178.79998779296875,148.49998474121094 " stroke="#6E6E6E" fill="none" stroke-width="0.75" stroke-opacity="1" />
  <path d="M62.19542694091797,318.2535095214844 L89.36219787597656,299.2914733886719 " stroke="#6E6E6E" fill="none" stroke-width="0.75" stroke-opacity="1" />
  <path d="M94.0362319946289,296.0290222167969 L90.63282012939453,301.11187744140625 L88.09156799316406,297.4710388183594 L94.0362319946289,296.0290222167969 " stroke="none" fill="#6E6E6E" fill-rule="evenodd" stroke-width="0" fill-opacity="1" />
  <path d="M94.0362319946289,296.0290222167969 L90.63282012939453,301.11187744140625 L88.09156799316406,297.4710388183594 L94.0362319946289,296.0290222167969 " stroke="#6E6E6E" fill="none" stroke-width="0.75" stroke-opacity="1" />
  <path d="M74.39999389648438,273.29998779296875 L83.69999694824219,273.29998779296875 " stroke="#6E6E6E" fill="none" stroke-width="0.75" stroke-opacity="1" />
  <path d="M89.39999389648438,273.2999572753906 L83.69998931884766,275.51995849609375 L83.69998931884766,271.0799865722656 L89.39999389648438,273.2999572753906 " stroke="none" fill="#6E6E6E" fill-rule="evenodd" stroke-width="0" fill-opacity="1" />
  <path d="M89.39999389648438,273.2999572753906 L83.69998931884766,275.51995849609375 L83.69998931884766,271.0799865722656 L89.39999389648438,273.2999572753906 " stroke="#6E6E6E" fill="none" stroke-width="0.75" stroke-opacity="1" />
  <path d="M163.79998779296875,273.29998779296875 L173.09999084472656,273.29998779296875 " stroke="#6E6E6E" fill="none" stroke-width="0.75" stroke-opacity="1" />
  <path d="M178.79998779296875,273.2999572753906 L173.0999755859375,275.51995849609375 L173.0999755859375,271.0799865722656 L178.79998779296875,273.2999572753906 " stroke="none" fill="#6E6E6E" fill-rule="evenodd" stroke-width="0" fill-opacity="1" />
  <path d="M178.79998779296875,273.2999572753906 L173.0999755859375,275.51995849609375 L173.0999755859375,271.0799865722656 L178.79998779296875,273.2999572753906 " stroke="#6E6E6E" fill="none" stroke-width="0.75" stroke-opacity="1" />
  <path d="M62.19542694091797,443.05352783203125 L89.36219787597656,424.09149169921875 " stroke="#6E6E6E" fill="none" stroke-width="0.75" stroke-opacity="1" />
  <path d="M94.0362319946289,420.82904052734375 L90.63282012939453,425.9118957519531 L88.09156799316406,422.27105712890625 L94.0362319946289,420.82904052734375 " stroke="none" fill="#6E6E6E" fill-rule="evenodd" stroke-width="0" fill-opacity="1" />
  <path d="M94.0362319946289,420.82904052734375 L90.63282012939453,425.9118957519531 L88.09156799316406,422.27105712890625 L94.0362319946289,420.82904052734375 " stroke="#6E6E6E" fill="none" stroke-width="0.75" stroke-opacity="1" />
  <path d="M74.39999389648438,398.0999755859375 L83.69999694824219,398.0999755859375 " stroke="#6E6E6E" fill="none" stroke-width="0.75" stroke-opacity="1" />
  <path d="M89.39999389648438,398.0999755859375 L83.69998931884766,400.3199768066406 L83.69998931884766,395.8800048828125 L89.39999389648438,398.0999755859375 " stroke="none" fill="#6E6E6E" fill-rule="evenodd" stroke-width="0" fill-opacity="1" />
  <path d="M89.39999389648438,398.0999755859375 L83.69998931884766,400.3199768066406 L83.69998931884766,395.8800048828125 L89.39999389648438,398.0999755859375 " stroke="#6E6E6E" fill="none" stroke-width="0.75" stroke-opacity="1" />
  <path d="M163.79998779296875,398.0999755859375 L173.09999084472656,398.0999755859375 " stroke="#6E6E6E" fill="none" stroke-width="0.75" stroke-opacity="1" />
  <path d="M178.79998779296875,398.0999755859375 L173.0999755859375,400.3199768066406 L173.0999755859375,395.8800048828125 L178.79998779296875,398.0999755859375 " stroke="none" fill="#6E6E6E" fill-rule="evenodd" stroke-width="0" fill-opacity="1" />
  <path d="M178.79998779296875,398.0999755859375 L173.0999755859375,400.3199768066406 L173.0999755859375,395.8800048828125 L178.79998779296875,398.0999755859375 " stroke="#6E6E6E" fill="none" stroke-width="0.75" stroke-opacity="1" />
  <path d="M240.99542236328125,318.2535095214844 L268.16217041015625,299.2914733886719 " stroke="#6E6E6E" fill="none" stroke-width="0.75" stroke-opacity="1" />
  <path d="M272.8362121582031,296.0290222167969 L269.43280029296875,301.11187744140625 L266.89154052734375,297.4710388183594 L272.8362121582031,296.0290222167969 " stroke="none" fill="#6E6E6E" fill-rule="evenodd" stroke-width="0" fill-opacity="1" />
  <path d="M272.8362121582031,296.0290222167969 L269.43280029296875,301.11187744140625 L266.89154052734375,297.4710388183594 L272.8362121582031,296.0290222167969 " stroke="#6E6E6E" fill="none" stroke-width="0.75" stroke-opacity="1" />
  <path d="M253.1999969482422,273.29998779296875 L262.4999694824219,273.29998779296875 " stroke="#6E6E6E" fill="none" stroke-width="0.75" stroke-opacity="1" />
  <path d="M268.1999816894531,273.2999572753906 L262.4999694824219,275.51995849609375 L262.4999694824219,271.0799865722656 L268.1999816894531,273.2999572753906 " stroke="none" fill="#6E6E6E" fill-rule="evenodd" stroke-width="0" fill-opacity="1" />
  <path d="M268.1999816894531,273.2999572753906 L262.4999694824219,275.51995849609375 L262.4999694824219,271.0799865722656 L268.1999816894531,273.2999572753906 " stroke="#6E6E6E" fill="none" stroke-width="0.75" stroke-opacity="1" />
  <path d="M231.41226196289062,170.01512145996094 L285.1031799316406,244.9662322998047 " stroke="#6E6E6E" fill="none" stroke-width="0.75" stroke-opacity="1" />
  <path d="M288.42254638671875,249.59999084472656 L283.2984619140625,246.259033203125 L286.90789794921875,243.6734161376953 L288.42254638671875,249.59999084472656 " stroke="none" fill="#6E6E6E" fill-rule="evenodd" stroke-width="0" fill-opacity="1" />
  <path d="M288.42254638671875,249.59999084472656 L283.2984619140625,246.259033203125 L286.90789794921875,243.6734161376953 L288.42254638671875,249.59999084472656 " stroke="#6E6E6E" fill="none" stroke-width="0.75" stroke-opacity="1" />
  <path d="M231.41226196289062,376.5848693847656 L285.1031799316406,301.6337585449219 " stroke="#6E6E6E" fill="none" stroke-width="0.75" stroke-opacity="1" />
  <path d="M288.4225769042969,297 L286.9079284667969,302.9265441894531 L283.2984619140625,300.3409423828125 L288.4225769042969,297 " stroke="none" fill="#6E6E6E" fill-rule="evenodd" stroke-width="0" fill-opacity="1" />
  <path d="M288.4225769042969,297 L286.9079284667969,302.9265441894531 L283.2984619140625,300.3409423828125 L288.4225769042969,297 " stroke="#6E6E6E" fill="none" stroke-width="0.75" stroke-opacity="1" />
  <path d="M342.5999755859375,273.29998779296875 L351.89996337890625,273.29998779296875 " stroke="#6E6E6E" fill="none" stroke-width="0.75" stroke-opacity="1" />
  <path d="M357.5999755859375,273.2999572753906 L351.89996337890625,275.51995849609375 L351.89996337890625,271.0799865722656 L357.5999755859375,273.2999572753906 " stroke="none" fill="#6E6E6E" fill-rule="evenodd" stroke-width="0" fill-opacity="1" />
  <path d="M357.5999755859375,273.2999572753906 L351.89996337890625,275.51995849609375 L351.89996337890625,271.0799865722656 L357.5999755859375,273.2999572753906 " stroke="#6E6E6E" fill="none" stroke-width="0.75" stroke-opacity="1" />
  <path d="M403.0620422363281,250.23277282714844 L473.7892761230469,52.766178131103516 " stroke="#6E6E6E" fill="none" stroke-width="0.75" stroke-opacity="1" />
  <path d="M475.7112731933594,47.400001525878906 L475.8792419433594,53.51475143432617 L471.69927978515625,52.01759719848633 L475.7112731933594,47.400001525878906 " stroke="none" fill="#6E6E6E" fill-rule="evenodd" stroke-width="0" fill-opacity="1" />
  <path d="M475.7112731933594,47.400001525878906 L475.8792419433594,53.51475143432617 L471.69927978515625,52.01759719848633 L475.7112731933594,47.400001525878906 " stroke="#6E6E6E" fill="none" stroke-width="0.75" stroke-opacity="1" />
  <path d="M432,23.69999885559082 L441.3000183105469,23.69999885559082 " stroke="#6E6E6E" fill="none" stroke-width="0.75" stroke-opacity="1" />
  <path d="M447,23.69999885559082 L441.29998779296875,25.920000076293945 L441.29998779296875,21.479999542236328 L447,23.69999885559082 " stroke="none" fill="#6E6E6E" fill-rule="evenodd" stroke-width="0" fill-opacity="1" />
  <path d="M447,23.69999885559082 L441.29998779296875,25.920000076293945 L441.29998779296875,21.479999542236328 L447,23.69999885559082 " stroke="#6E6E6E" fill="none" stroke-width="0.75" stroke-opacity="1" />
  <path d="M521.3999633789062,23.69999885559082 L530.699951171875,23.69999885559082 " stroke="#6E6E6E" fill="none" stroke-width="0.75" stroke-opacity="1" />
  <path d="M536.3999633789062,23.69999885559082 L530.699951171875,25.920000076293945 L530.699951171875,21.479999542236328 L536.3999633789062,23.69999885559082 " stroke="none" fill="#6E6E6E" fill-rule="evenodd" stroke-width="0" fill-opacity="1" />
  <path d="M536.3999633789062,23.69999885559082 L530.699951171875,25.920000076293945 L530.699951171875,21.479999542236328 L536.3999633789062,23.69999885559082 " stroke="#6E6E6E" fill="none" stroke-width="0.75" stroke-opacity="1" />
  <path d="M610.7999267578125,23.69999885559082 L620.0999755859375,23.69999885559082 " stroke="#6E6E6E" fill="none" stroke-width="0.75" stroke-opacity="1" />
  <path d="M625.7999877929688,23.69999885559082 L620.0999755859375,25.920000076293945 L620.0999755859375,21.479999542236328 L625.7999877929688,23.69999885559082 " stroke="none" fill="#6E6E6E" fill-rule="evenodd" stroke-width="0" fill-opacity="1" />
  <path d="M625.7999877929688,23.69999885559082 L620.0999755859375,25.920000076293945 L620.0999755859375,21.479999542236328 L625.7999877929688,23.69999885559082 " stroke="#6E6E6E" fill="none" stroke-width="0.75" stroke-opacity="1" />
  <path d="M700.199951171875,23.69999885559082 L709.5,23.69999885559082 " stroke="#6E6E6E" fill="none" stroke-width="0.75" stroke-opacity="1" />
  <path d="M715.199951171875,23.69999885559082 L709.4999389648438,25.920000076293945 L709.4999389648438,21.479999542236328 L715.199951171875,23.69999885559082 " stroke="none" fill="#6E6E6E" fill-rule="evenodd" stroke-width="0" fill-opacity="1" />
  <path d="M715.199951171875,23.69999885559082 L709.4999389648438,25.920000076293945 L709.4999389648438,21.479999542236328 L715.199951171875,23.69999885559082 " stroke="#6E6E6E" fill="none" stroke-width="0.75" stroke-opacity="1" />
  <path d="M253.19996643066406,23.699993133544922 C253.19996643066406,36.78913879394531 236.5449676513672,47.399993896484375 216,47.39999771118164 C195.4550018310547,47.400001525878906 178.79998779296875,36.78915786743164 178.7999725341797,23.700014114379883 L178.7999725341797,23.70001792907715 C178.79995727539062,10.610868453979492 195.4549560546875,8.58306884765625E-06 215.99993896484375,-0 C236.54493713378906,-1.0013580322265625E-05 253.199951171875,10.610833168029785 253.19996643066406,23.69999885559082 C253.19996643066406,23.69999885559082 253.19996643066406,23.69999885559082 253.19996643066406,23.69999885559082 " stroke="none" fill="#70AECC" fill-rule="evenodd" stroke-width="0" fill-opacity="1" />
  <text x="21.15619468688965" y="36.154998779296875" dx="0" dy="0" font-family="Segoe UI" font-size="8.249999754130847pt" fill="#000000" style="text-anchor:start" transform="matrix(0.750000 0.000000 0.000000 0.750000 178.79998779296875 0)">LanduseCut</text>
  <path d="M253.19996643066406,23.699993133544922 C253.19996643066406,36.78913879394531 236.5449676513672,47.399993896484375 216,47.39999771118164 C195.4550018310547,47.400001525878906 178.79998779296875,36.78915786743164 178.7999725341797,23.700014114379883 L178.7999725341797,23.70001792907715 C178.79995727539062,10.610868453979492 195.4549560546875,8.58306884765625E-06 215.99993896484375,-0 C236.54493713378906,-1.0013580322265625E-05 253.199951171875,10.610833168029785 253.19996643066406,23.69999885559082 C253.19996643066406,23.69999885559082 253.19996643066406,23.69999885559082 253.19996643066406,23.69999885559082 " stroke="none" fill="none" stroke-width="0.75" stroke-opacity="0" />
  <path d="M253.19996643066406,86.09999084472656 C253.19996643066406,99.18913269042969 236.5449676513672,109.79998779296875 216,109.79999542236328 C195.4550018310547,109.79999542236328 178.79998779296875,99.18915557861328 178.7999725341797,86.10000610351562 L178.7999725341797,86.10001373291016 C178.79995727539062,73.0108642578125 195.4549560546875,62.40000534057617 215.99993896484375,62.39999771118164 C236.54493713378906,62.399986267089844 253.199951171875,73.01082611083984 253.19996643066406,86.09999084472656 C253.19996643066406,86.09999084472656 253.19996643066406,86.09999084472656 253.19996643066406,86.09999084472656 " stroke="none" fill="#52C0CC" fill-rule="evenodd" stroke-width="0" fill-opacity="1" />
  <text x="23.936193466186523" y="36.154998779296875" dx="0" dy="0" font-family="Segoe UI" font-size="8.249999754130847pt" fill="#000000" style="text-anchor:start" transform="matrix(0.750000 0.000000 0.000000 0.750000 178.79998779296875 62.39999771118164)">Expression</text>
  <path d="M253.19996643066406,86.09999084472656 C253.19996643066406,99.18913269042969 236.5449676513672,109.79998779296875 216,109.79999542236328 C195.4550018310547,109.79999542236328 178.79998779296875,99.18915557861328 178.7999725341797,86.10000610351562 L178.7999725341797,86.10001373291016 C178.79995727539062,73.0108642578125 195.4549560546875,62.40000534057617 215.99993896484375,62.39999771118164 C236.54493713378906,62.399986267089844 253.199951171875,73.01082611083984 253.19996643066406,86.09999084472656 C253.19996643066406,86.09999084472656 253.19996643066406,86.09999084472656 253.19996643066406,86.09999084472656 " stroke="none" fill="none" stroke-width="0.75" stroke-opacity="0" />
  <path d="M276.70391845703125,0 L334.0960388183594,0 L334.09600830078125,-0 C338.7926025390625,-7.152557373046875E-06 342.5999450683594,3.807328701019287 342.5999450683594,8.503933906555176 C342.5999450683594,8.503935813903809 342.5999450683594,8.503937721252441 342.5999450683594,8.503938674926758 L342.5999755859375,8.503936767578125 L342.5999755859375,38.89606475830078 L342.5999450683594,38.89605712890625 C342.5999450683594,43.5926513671875 338.7926330566406,47.399993896484375 334.0960388183594,47.39999771118164 L334.0960388183594,47.39999771118164 L276.70391845703125,47.39999771118164 L276.70391845703125,47.39999771118164 C272.00732421875,47.39999771118164 268.1999816894531,43.59265899658203 268.1999816894531,38.89606475830078 L268.1999816894531,8.503936767578125 L268.199951171875,8.503941535949707 C268.199951171875,3.8073480129241943 272.0072937011719,3.5762786865234375E-06 276.7038879394531,-7.152557373046875E-07 " stroke="none" fill="#F2E279" fill-rule="evenodd" stroke-width="0" fill-opacity="1" />
  <text x="16.61952781677246" y="28.84000015258789" dx="0" dy="0" font-family="Segoe UI" font-size="8.249999754130847pt" fill="#000000" style="text-anchor:start" transform="matrix(0.750000 0.000000 0.000000 0.750000 268.1999816894531 0)">Make Feature </text>
  <text x="36.76285934448242" y="43.470001220703125" dx="0" dy="0" font-family="Segoe UI" font-size="8.249999754130847pt" fill="#000000" style="text-anchor:start" transform="matrix(0.750000 0.000000 0.000000 0.750000 268.1999816894531 0)">Layer</text>
  <path d="M276.70391845703125,0 L334.0960388183594,0 L334.09600830078125,-0 C338.7926025390625,-7.152557373046875E-06 342.5999450683594,3.807328701019287 342.5999450683594,8.503933906555176 C342.5999450683594,8.503935813903809 342.5999450683594,8.503937721252441 342.5999450683594,8.503938674926758 L342.5999755859375,8.503936767578125 L342.5999755859375,38.89606475830078 L342.5999450683594,38.89605712890625 C342.5999450683594,43.5926513671875 338.7926330566406,47.399993896484375 334.0960388183594,47.39999771118164 L334.0960388183594,47.39999771118164 L276.70391845703125,47.39999771118164 L276.70391845703125,47.39999771118164 C272.00732421875,47.39999771118164 268.1999816894531,43.59265899658203 268.1999816894531,38.89606475830078 L268.1999816894531,8.503936767578125 L268.199951171875,8.503941535949707 C268.199951171875,3.8073480129241943 272.0072937011719,3.5762786865234375E-06 276.7038879394531,-7.152557373046875E-07 " stroke="none" fill="none" stroke-width="0.75" stroke-opacity="0" />
  <path d="M431.99993896484375,23.699993133544922 C431.99993896484375,36.78913879394531 415.3449401855469,47.399993896484375 394.79998779296875,47.39999771118164 C374.2549743652344,47.400001525878906 357.5999755859375,36.78915786743164 357.5999450683594,23.700014114379883 L357.5999450683594,23.70001792907715 C357.5999450683594,10.610868453979492 374.25494384765625,8.58306884765625E-06 394.7999267578125,-0 C415.34490966796875,-1.0013580322265625E-05 431.99993896484375,10.610833168029785 431.99993896484375,23.69999885559082 C431.99993896484375,23.69999885559082 431.99993896484375,23.69999885559082 431.99993896484375,23.69999885559082 " stroke="none" fill="#83CC7C" fill-rule="evenodd" stroke-width="0" fill-opacity="1" />
  <text x="4.849527359008789" y="36.154998779296875" dx="0" dy="0" font-family="Segoe UI" font-size="8.249999754130847pt" fill="#000000" style="text-anchor:start" transform="matrix(0.750000 0.000000 0.000000 0.750000 357.5999755859375 0)">Preferred_Landuse</text>
  <path d="M431.99993896484375,23.699993133544922 C431.99993896484375,36.78913879394531 415.3449401855469,47.399993896484375 394.79998779296875,47.39999771118164 C374.2549743652344,47.400001525878906 357.5999755859375,36.78915786743164 357.5999450683594,23.700014114379883 L357.5999450683594,23.70001792907715 C357.5999450683594,10.610868453979492 374.25494384765625,8.58306884765625E-06 394.7999267578125,-0 C415.34490966796875,-1.0013580322265625E-05 431.99993896484375,10.610833168029785 431.99993896484375,23.69999885559082 C431.99993896484375,23.69999885559082 431.99993896484375,23.69999885559082 431.99993896484375,23.69999885559082 " stroke="none" fill="none" stroke-width="0.75" stroke-opacity="0" />
  <path d="M74.39998626708984,148.49998474121094 C74.39998626708984,161.58912658691406 57.74497985839844,172.19998168945312 37.20001220703125,172.19998168945312 C16.655027389526367,172.1999969482422 1.430511474609375E-05,161.58914184570312 -2.86102294921875E-06,148.5 L-5.7220458984375E-06,148.5 C-2.288818359375E-05,135.41085815429688 16.65497398376465,124.80000305175781 37.1999626159668,124.79999542236328 C57.74495315551758,124.79998016357422 74.39996337890625,135.41082763671875 74.39998626708984,148.49998474121094 C74.39998626708984,148.49998474121094 74.39998626708984,148.49998474121094 74.39998626708984,148.49998474121094 " stroke="none" fill="#70AECC" fill-rule="evenodd" stroke-width="0" fill-opacity="1" />
  <text x="17.486194610595703" y="36.154998779296875" dx="0" dy="0" font-family="Segoe UI" font-size="8.249999754130847pt" fill="#000000" style="text-anchor:start" transform="matrix(0.750000 0.000000 0.000000 0.750000 0 124.79999542236328)">MarketTowns</text>
  <path d="M74.39998626708984,148.49998474121094 C74.39998626708984,161.58912658691406 57.74497985839844,172.19998168945312 37.20001220703125,172.19998168945312 C16.655027389526367,172.1999969482422 1.430511474609375E-05,161.58914184570312 -2.86102294921875E-06,148.5 L-5.7220458984375E-06,148.5 C-2.288818359375E-05,135.41085815429688 16.65497398376465,124.80000305175781 37.1999626159668,124.79999542236328 C57.74495315551758,124.79998016357422 74.39996337890625,135.41082763671875 74.39998626708984,148.49998474121094 C74.39998626708984,148.49998474121094 74.39998626708984,148.49998474121094 74.39998626708984,148.49998474121094 " stroke="none" fill="none" stroke-width="0.75" stroke-opacity="0" />
  <path d="M74.39998626708984,210.89999389648438 C74.39998626708984,223.98915100097656 57.74497985839844,234.60000610351562 37.20001220703125,234.60000610351562 C16.655027389526367,234.60000610351562 1.430511474609375E-05,223.98916625976562 -2.86102294921875E-06,210.9000244140625 L-5.7220458984375E-06,210.9000244140625 C-2.288818359375E-05,197.8108673095703 16.65497398376465,187.20001220703125 37.1999626159668,187.20001220703125 C57.74495315551758,187.1999969482422 74.39996337890625,197.8108367919922 74.39998626708984,210.90000915527344 C74.39998626708984,210.90000915527344 74.39998626708984,210.90000915527344 74.39998626708984,210.90000915527344 " stroke="none" fill="#52C0CC" fill-rule="evenodd" stroke-width="0" fill-opacity="1" />
  <text x="7.459527492523193" y="28.84000015258789" dx="0" dy="0" font-family="Segoe UI" font-size="8.249999754130847pt" fill="#000000" style="text-anchor:start" transform="matrix(0.750000 0.000000 0.000000 0.750000 0 187.20001220703125)">Distance (meters) </text>
  <text x="46.63286209106445" y="43.470001220703125" dx="0" dy="0" font-family="Segoe UI" font-size="8.249999754130847pt" fill="#000000" style="text-anchor:start" transform="matrix(0.750000 0.000000 0.000000 0.750000 0 187.20001220703125)">1</text>
  <path d="M74.39998626708984,210.89999389648438 C74.39998626708984,223.98915100097656 57.74497985839844,234.60000610351562 37.20001220703125,234.60000610351562 C16.655027389526367,234.60000610351562 1.430511474609375E-05,223.98916625976562 -2.86102294921875E-06,210.9000244140625 L-5.7220458984375E-06,210.9000244140625 C-2.288818359375E-05,197.8108673095703 16.65497398376465,187.20001220703125 37.1999626159668,187.20001220703125 C57.74495315551758,187.1999969482422 74.39996337890625,197.8108367919922 74.39998626708984,210.90000915527344 C74.39998626708984,210.90000915527344 74.39998626708984,210.90000915527344 74.39998626708984,210.90000915527344 " stroke="none" fill="none" stroke-width="0.75" stroke-opacity="0" />
  <path d="M97.9039306640625,124.79999542236328 L155.29605102539062,124.79999542236328 L155.29603576660156,124.79999542236328 C159.99261474609375,124.79998779296875 163.7999725341797,128.60731506347656 163.7999725341797,133.30392456054688 C163.7999725341797,133.30392456054688 163.7999725341797,133.30392456054688 163.7999725341797,133.30392456054688 L163.79998779296875,133.30392456054688 L163.79998779296875,163.69606018066406 L163.7999725341797,163.696044921875 C163.7999725341797,168.39263916015625 159.99264526367188,172.19998168945312 155.29605102539062,172.19998168945312 L155.29605102539062,172.19998168945312 L97.9039306640625,172.19998168945312 L97.9039306640625,172.19998168945312 C93.20733642578125,172.19998168945312 89.39999389648438,168.3926544189453 89.39999389648438,163.69606018066406 L89.39999389648438,133.30392456054688 L89.39998626708984,133.30392456054688 C89.39998626708984,128.60733032226562 93.20732116699219,124.79999542236328 97.90391540527344,124.79998779296875 " stroke="none" fill="#F2E279" fill-rule="evenodd" stroke-width="0" fill-opacity="1" />
  <text x="35.09952926635742" y="36.154998779296875" dx="0" dy="0" font-family="Segoe UI" font-size="8.249999754130847pt" fill="#000000" style="text-anchor:start" transform="matrix(0.750000 0.000000 0.000000 0.750000 89.39999389648438 124.79999542236328)">Buffer</text>
  <path d="M97.9039306640625,124.79999542236328 L155.29605102539062,124.79999542236328 L155.29603576660156,124.79999542236328 C159.99261474609375,124.79998779296875 163.7999725341797,128.60731506347656 163.7999725341797,133.30392456054688 C163.7999725341797,133.30392456054688 163.7999725341797,133.30392456054688 163.7999725341797,133.30392456054688 L163.79998779296875,133.30392456054688 L163.79998779296875,163.69606018066406 L163.7999725341797,163.696044921875 C163.7999725341797,168.39263916015625 159.99264526367188,172.19998168945312 155.29605102539062,172.19998168945312 L155.29605102539062,172.19998168945312 L97.9039306640625,172.19998168945312 L97.9039306640625,172.19998168945312 C93.20733642578125,172.19998168945312 89.39999389648438,168.3926544189453 89.39999389648438,163.69606018066406 L89.39999389648438,133.30392456054688 L89.39998626708984,133.30392456054688 C89.39998626708984,128.60733032226562 93.20732116699219,124.79999542236328 97.90391540527344,124.79998779296875 " stroke="none" fill="none" stroke-width="0.75" stroke-opacity="0" />
  <path d="M253.19996643066406,148.49998474121094 C253.19996643066406,161.58912658691406 236.5449676513672,172.19998168945312 216,172.19998168945312 C195.4550018310547,172.1999969482422 178.79998779296875,161.58914184570312 178.7999725341797,148.5 L178.7999725341797,148.5 C178.79995727539062,135.41085815429688 195.4549560546875,124.80000305175781 215.99993896484375,124.79999542236328 C236.54493713378906,124.79998016357422 253.199951171875,135.41082763671875 253.19996643066406,148.49998474121094 C253.19996643066406,148.49998474121094 253.19996643066406,148.49998474121094 253.19996643066406,148.49998474121094 " stroke="none" fill="#83CC7C" fill-rule="evenodd" stroke-width="0" fill-opacity="1" />
  <text x="17.64952850341797" y="36.154998779296875" dx="0" dy="0" font-family="Segoe UI" font-size="8.249999754130847pt" fill="#000000" style="text-anchor:start" transform="matrix(0.750000 0.000000 0.000000 0.750000 178.79998779296875 124.79999542236328)">MrkTownBuff</text>
  <path d="M253.19996643066406,148.49998474121094 C253.19996643066406,161.58912658691406 236.5449676513672,172.19998168945312 216,172.19998168945312 C195.4550018310547,172.1999969482422 178.79998779296875,161.58914184570312 178.7999725341797,148.5 L178.7999725341797,148.5 C178.79995727539062,135.41085815429688 195.4549560546875,124.80000305175781 215.99993896484375,124.79999542236328 C236.54493713378906,124.79998016357422 253.199951171875,135.41082763671875 253.19996643066406,148.49998474121094 C253.19996643066406,148.49998474121094 253.19996643066406,148.49998474121094 253.19996643066406,148.49998474121094 " stroke="none" fill="none" stroke-width="0.75" stroke-opacity="0" />
  <path d="M74.39998626708984,273.2999572753906 C74.39998626708984,286.3891296386719 57.74497985839844,296.9999694824219 37.20001220703125,296.9999694824219 C16.655027389526367,296.9999694824219 1.430511474609375E-05,286.3891296386719 -2.86102294921875E-06,273.29998779296875 L-5.7220458984375E-06,273.29998779296875 C-2.288818359375E-05,260.2108459472656 16.65497398376465,249.59999084472656 37.1999626159668,249.59999084472656 C57.74495315551758,249.5999755859375 74.39996337890625,260.2108154296875 74.39998626708984,273.29998779296875 C74.39998626708984,273.29998779296875 74.39998626708984,273.29998779296875 74.39998626708984,273.29998779296875 " stroke="none" fill="#70AECC" fill-rule="evenodd" stroke-width="0" fill-opacity="1" />
  <text x="18.122859954833984" y="36.154998779296875" dx="0" dy="0" font-family="Segoe UI" font-size="8.249999754130847pt" fill="#000000" style="text-anchor:start" transform="matrix(0.750000 0.000000 0.000000 0.750000 0 249.59999084472656)">Major_Towns</text>
  <path d="M74.39998626708984,273.2999572753906 C74.39998626708984,286.3891296386719 57.74497985839844,296.9999694824219 37.20001220703125,296.9999694824219 C16.655027389526367,296.9999694824219 1.430511474609375E-05,286.3891296386719 -2.86102294921875E-06,273.29998779296875 L-5.7220458984375E-06,273.29998779296875 C-2.288818359375E-05,260.2108459472656 16.65497398376465,249.59999084472656 37.1999626159668,249.59999084472656 C57.74495315551758,249.5999755859375 74.39996337890625,260.2108154296875 74.39998626708984,273.29998779296875 C74.39998626708984,273.29998779296875 74.39998626708984,273.29998779296875 74.39998626708984,273.29998779296875 " stroke="none" fill="none" stroke-width="0.75" stroke-opacity="0" />
  <path d="M74.39998626708984,335.6999816894531 C74.39998626708984,348.78912353515625 57.74497985839844,359.3999938964844 37.20001220703125,359.3999938964844 C16.655027389526367,359.3999938964844 1.430511474609375E-05,348.7891540527344 -2.86102294921875E-06,335.70001220703125 L-5.7220458984375E-06,335.70001220703125 C-2.288818359375E-05,322.61083984375 16.65497398376465,312 37.1999626159668,312 C57.74495315551758,311.9999694824219 74.39996337890625,322.6108093261719 74.39998626708984,335.6999816894531 C74.39998626708984,335.6999816894531 74.39998626708984,335.6999816894531 74.39998626708984,335.6999816894531 " stroke="none" fill="#52C0CC" fill-rule="evenodd" stroke-width="0" fill-opacity="1" />
  <text x="7.459527492523193" y="28.84000015258789" dx="0" dy="0" font-family="Segoe UI" font-size="8.249999754130847pt" fill="#000000" style="text-anchor:start" transform="matrix(0.750000 0.000000 0.000000 0.750000 0 312)">Distance (meters) </text>
  <text x="46.63286209106445" y="43.470001220703125" dx="0" dy="0" font-family="Segoe UI" font-size="8.249999754130847pt" fill="#000000" style="text-anchor:start" transform="matrix(0.750000 0.000000 0.000000 0.750000 0 312)">2</text>
  <path d="M74.39998626708984,335.6999816894531 C74.39998626708984,348.78912353515625 57.74497985839844,359.3999938964844 37.20001220703125,359.3999938964844 C16.655027389526367,359.3999938964844 1.430511474609375E-05,348.7891540527344 -2.86102294921875E-06,335.70001220703125 L-5.7220458984375E-06,335.70001220703125 C-2.288818359375E-05,322.61083984375 16.65497398376465,312 37.1999626159668,312 C57.74495315551758,311.9999694824219 74.39996337890625,322.6108093261719 74.39998626708984,335.6999816894531 C74.39998626708984,335.6999816894531 74.39998626708984,335.6999816894531 74.39998626708984,335.6999816894531 " stroke="none" fill="none" stroke-width="0.75" stroke-opacity="0" />
  <path d="M97.9039306640625,249.59999084472656 L155.29605102539062,249.59999084472656 L155.29603576660156,249.59999084472656 C159.99261474609375,249.5999755859375 163.7999725341797,253.40731811523438 163.7999725341797,258.1039123535156 C163.7999725341797,258.1039123535156 163.7999725341797,258.1039123535156 163.7999725341797,258.1039123535156 L163.79998779296875,258.1039123535156 L163.79998779296875,288.49603271484375 L163.7999725341797,288.49603271484375 C163.7999725341797,293.192626953125 159.99264526367188,296.9999694824219 155.29605102539062,296.9999694824219 L155.29605102539062,296.9999694824219 L97.9039306640625,296.9999694824219 L97.9039306640625,296.9999694824219 C93.20733642578125,296.9999694824219 89.39999389648438,293.192626953125 89.39999389648438,288.49603271484375 L89.39999389648438,258.1039123535156 L89.39998626708984,258.1039123535156 C89.39998626708984,253.40733337402344 93.20732116699219,249.59999084472656 97.90391540527344,249.5999755859375 " stroke="none" fill="#F2E279" fill-rule="evenodd" stroke-width="0" fill-opacity="1" />
  <text x="27.309528350830078" y="36.154998779296875" dx="0" dy="0" font-family="Segoe UI" font-size="8.249999754130847pt" fill="#000000" style="text-anchor:start" transform="matrix(0.750000 0.000000 0.000000 0.750000 89.39999389648438 249.59999084472656)">Buffer (2)</text>
  <path d="M97.9039306640625,249.59999084472656 L155.29605102539062,249.59999084472656 L155.29603576660156,249.59999084472656 C159.99261474609375,249.5999755859375 163.7999725341797,253.40731811523438 163.7999725341797,258.1039123535156 C163.7999725341797,258.1039123535156 163.7999725341797,258.1039123535156 163.7999725341797,258.1039123535156 L163.79998779296875,258.1039123535156 L163.79998779296875,288.49603271484375 L163.7999725341797,288.49603271484375 C163.7999725341797,293.192626953125 159.99264526367188,296.9999694824219 155.29605102539062,296.9999694824219 L155.29605102539062,296.9999694824219 L97.9039306640625,296.9999694824219 L97.9039306640625,296.9999694824219 C93.20733642578125,296.9999694824219 89.39999389648438,293.192626953125 89.39999389648438,288.49603271484375 L89.39999389648438,258.1039123535156 L89.39998626708984,258.1039123535156 C89.39998626708984,253.40733337402344 93.20732116699219,249.59999084472656 97.90391540527344,249.5999755859375 " stroke="none" fill="none" stroke-width="0.75" stroke-opacity="0" />
  <path d="M253.19996643066406,273.2999572753906 C253.19996643066406,286.3891296386719 236.5449676513672,296.9999694824219 216,296.9999694824219 C195.4550018310547,296.9999694824219 178.79998779296875,286.3891296386719 178.7999725341797,273.29998779296875 L178.7999725341797,273.29998779296875 C178.79995727539062,260.2108459472656 195.4549560546875,249.59999084472656 215.99993896484375,249.59999084472656 C236.54493713378906,249.5999755859375 253.199951171875,260.2108154296875 253.19996643066406,273.29998779296875 C253.19996643066406,273.29998779296875 253.19996643066406,273.29998779296875 253.19996643066406,273.29998779296875 " stroke="none" fill="#83CC7C" fill-rule="evenodd" stroke-width="0" fill-opacity="1" />
  <text x="19.052860260009766" y="36.154998779296875" dx="0" dy="0" font-family="Segoe UI" font-size="8.249999754130847pt" fill="#000000" style="text-anchor:start" transform="matrix(0.750000 0.000000 0.000000 0.750000 178.79998779296875 249.59999084472656)">MjrTownBuff</text>
  <path d="M253.19996643066406,273.2999572753906 C253.19996643066406,286.3891296386719 236.5449676513672,296.9999694824219 216,296.9999694824219 C195.4550018310547,296.9999694824219 178.79998779296875,286.3891296386719 178.7999725341797,273.29998779296875 L178.7999725341797,273.29998779296875 C178.79995727539062,260.2108459472656 195.4549560546875,249.59999084472656 215.99993896484375,249.59999084472656 C236.54493713378906,249.5999755859375 253.199951171875,260.2108154296875 253.19996643066406,273.29998779296875 C253.19996643066406,273.29998779296875 253.19996643066406,273.29998779296875 253.19996643066406,273.29998779296875 " stroke="none" fill="none" stroke-width="0.75" stroke-opacity="0" />
  <path d="M74.39998626708984,398.1000061035156 C74.39998626708984,411.18914794921875 57.74497985839844,421.8000183105469 37.20001220703125,421.8000183105469 C16.655027389526367,421.8000183105469 1.430511474609375E-05,411.1891784667969 -2.86102294921875E-06,398.10003662109375 L-5.7220458984375E-06,398.10003662109375 C-2.288818359375E-05,385.0108642578125 16.65497398376465,374.4000244140625 37.1999626159668,374.4000244140625 C57.74495315551758,374.3999938964844 74.39996337890625,385.0108337402344 74.39998626708984,398.1000061035156 C74.39998626708984,398.1000061035156 74.39998626708984,398.1000061035156 74.39998626708984,398.1000061035156 " stroke="none" fill="#70AECC" fill-rule="evenodd" stroke-width="0" fill-opacity="1" />
  <text x="34.8795280456543" y="36.154998779296875" dx="0" dy="0" font-family="Segoe UI" font-size="8.249999754130847pt" fill="#000000" style="text-anchor:start" transform="matrix(0.750000 0.000000 0.000000 0.750000 0 374.4000244140625)">Roads</text>
  <path d="M74.39998626708984,398.1000061035156 C74.39998626708984,411.18914794921875 57.74497985839844,421.8000183105469 37.20001220703125,421.8000183105469 C16.655027389526367,421.8000183105469 1.430511474609375E-05,411.1891784667969 -2.86102294921875E-06,398.10003662109375 L-5.7220458984375E-06,398.10003662109375 C-2.288818359375E-05,385.0108642578125 16.65497398376465,374.4000244140625 37.1999626159668,374.4000244140625 C57.74495315551758,374.3999938964844 74.39996337890625,385.0108337402344 74.39998626708984,398.1000061035156 C74.39998626708984,398.1000061035156 74.39998626708984,398.1000061035156 74.39998626708984,398.1000061035156 " stroke="none" fill="none" stroke-width="0.75" stroke-opacity="0" />
  <path d="M74.39998626708984,460.5 C74.39998626708984,473.5891418457031 57.74497985839844,484.20001220703125 37.20001220703125,484.20001220703125 C16.655027389526367,484.20001220703125 1.430511474609375E-05,473.58917236328125 -2.86102294921875E-06,460.5000305175781 L-5.7220458984375E-06,460.5000305175781 C-2.288818359375E-05,447.4108581542969 16.65497398376465,436.8000183105469 37.1999626159668,436.8000183105469 C57.74495315551758,436.79998779296875 74.39996337890625,447.41082763671875 74.39998626708984,460.5 C74.39998626708984,460.5 74.39998626708984,460.5 74.39998626708984,460.5 " stroke="none" fill="#52C0CC" fill-rule="evenodd" stroke-width="0" fill-opacity="1" />
  <text x="7.459527492523193" y="28.84000015258789" dx="0" dy="0" font-family="Segoe UI" font-size="8.249999754130847pt" fill="#000000" style="text-anchor:start" transform="matrix(0.750000 0.000000 0.000000 0.750000 0 436.8000183105469)">Distance (meters) </text>
  <text x="46.63286209106445" y="43.470001220703125" dx="0" dy="0" font-family="Segoe UI" font-size="8.249999754130847pt" fill="#000000" style="text-anchor:start" transform="matrix(0.750000 0.000000 0.000000 0.750000 0 436.8000183105469)">3</text>
  <path d="M74.39998626708984,460.5 C74.39998626708984,473.5891418457031 57.74497985839844,484.20001220703125 37.20001220703125,484.20001220703125 C16.655027389526367,484.20001220703125 1.430511474609375E-05,473.58917236328125 -2.86102294921875E-06,460.5000305175781 L-5.7220458984375E-06,460.5000305175781 C-2.288818359375E-05,447.4108581542969 16.65497398376465,436.8000183105469 37.1999626159668,436.8000183105469 C57.74495315551758,436.79998779296875 74.39996337890625,447.41082763671875 74.39998626708984,460.5 C74.39998626708984,460.5 74.39998626708984,460.5 74.39998626708984,460.5 " stroke="none" fill="none" stroke-width="0.75" stroke-opacity="0" />
  <path d="M97.9039306640625,374.4000244140625 L155.29605102539062,374.4000244140625 L155.29603576660156,374.4000244140625 C159.99261474609375,374.3999938964844 163.7999725341797,378.20733642578125 163.7999725341797,382.9039306640625 C163.7999725341797,382.9039306640625 163.7999725341797,382.9039611816406 163.7999725341797,382.9039611816406 L163.79998779296875,382.9039611816406 L163.79998779296875,413.29608154296875 L163.7999725341797,413.29608154296875 C163.7999725341797,417.99267578125 159.99264526367188,421.8000183105469 155.29605102539062,421.8000183105469 L155.29605102539062,421.8000183105469 L97.9039306640625,421.8000183105469 L97.9039306640625,421.8000183105469 C93.20733642578125,421.8000183105469 89.39999389648438,417.99267578125 89.39999389648438,413.29608154296875 L89.39999389648438,382.9039611816406 L89.39998626708984,382.9039611816406 C89.39998626708984,378.2073669433594 93.20732116699219,374.4000244140625 97.90391540527344,374.3999938964844 " stroke="none" fill="#F2E279" fill-rule="evenodd" stroke-width="0" fill-opacity="1" />
  <text x="27.309528350830078" y="36.154998779296875" dx="0" dy="0" font-family="Segoe UI" font-size="8.249999754130847pt" fill="#000000" style="text-anchor:start" transform="matrix(0.750000 0.000000 0.000000 0.750000 89.39999389648438 374.4000244140625)">Buffer (3)</text>
  <path d="M97.9039306640625,374.4000244140625 L155.29605102539062,374.4000244140625 L155.29603576660156,374.4000244140625 C159.99261474609375,374.3999938964844 163.7999725341797,378.20733642578125 163.7999725341797,382.9039306640625 C163.7999725341797,382.9039306640625 163.7999725341797,382.9039611816406 163.7999725341797,382.9039611816406 L163.79998779296875,382.9039611816406 L163.79998779296875,413.29608154296875 L163.7999725341797,413.29608154296875 C163.7999725341797,417.99267578125 159.99264526367188,421.8000183105469 155.29605102539062,421.8000183105469 L155.29605102539062,421.8000183105469 L97.9039306640625,421.8000183105469 L97.9039306640625,421.8000183105469 C93.20733642578125,421.8000183105469 89.39999389648438,417.99267578125 89.39999389648438,413.29608154296875 L89.39999389648438,382.9039611816406 L89.39998626708984,382.9039611816406 C89.39998626708984,378.2073669433594 93.20732116699219,374.4000244140625 97.90391540527344,374.3999938964844 " stroke="none" fill="none" stroke-width="0.75" stroke-opacity="0" />
  <path d="M253.19996643066406,398.1000061035156 C253.19996643066406,411.18914794921875 236.5449676513672,421.8000183105469 216,421.8000183105469 C195.4550018310547,421.8000183105469 178.79998779296875,411.1891784667969 178.7999725341797,398.10003662109375 L178.7999725341797,398.10003662109375 C178.79995727539062,385.0108642578125 195.4549560546875,374.4000244140625 215.99993896484375,374.4000244140625 C236.54493713378906,374.3999938964844 253.199951171875,385.0108337402344 253.19996643066406,398.1000061035156 C253.19996643066406,398.1000061035156 253.19996643066406,398.1000061035156 253.19996643066406,398.1000061035156 " stroke="none" fill="#83CC7C" fill-rule="evenodd" stroke-width="0" fill-opacity="1" />
  <text x="18.096193313598633" y="36.154998779296875" dx="0" dy="0" font-family="Segoe UI" font-size="8.249999754130847pt" fill="#000000" style="text-anchor:start" transform="matrix(0.750000 0.000000 0.000000 0.750000 178.79998779296875 374.4000244140625)">Roads_Buffer</text>
  <path d="M253.19996643066406,398.1000061035156 C253.19996643066406,411.18914794921875 236.5449676513672,421.8000183105469 216,421.8000183105469 C195.4550018310547,421.8000183105469 178.79998779296875,411.1891784667969 178.7999725341797,398.10003662109375 L178.7999725341797,398.10003662109375 C178.79995727539062,385.0108642578125 195.4549560546875,374.4000244140625 215.99993896484375,374.4000244140625 C236.54493713378906,374.3999938964844 253.199951171875,385.0108337402344 253.19996643066406,398.1000061035156 C253.19996643066406,398.1000061035156 253.19996643066406,398.1000061035156 253.19996643066406,398.1000061035156 " stroke="none" fill="none" stroke-width="0.75" stroke-opacity="0" />
  <path d="M253.19996643066406,335.6999816894531 C253.19996643066406,348.78912353515625 236.5449676513672,359.3999938964844 216,359.3999938964844 C195.4550018310547,359.3999938964844 178.79998779296875,348.7891540527344 178.7999725341797,335.70001220703125 L178.7999725341797,335.70001220703125 C178.79995727539062,322.61083984375 195.4549560546875,312 215.99993896484375,312 C236.54493713378906,311.9999694824219 253.199951171875,322.6108093261719 253.19996643066406,335.6999816894531 C253.19996643066406,335.6999816894531 253.19996643066406,335.6999816894531 253.19996643066406,335.6999816894531 " stroke="none" fill="#70AECC" fill-rule="evenodd" stroke-width="0" fill-opacity="1" />
  <text x="23.556194305419922" y="36.154998779296875" dx="0" dy="0" font-family="Segoe UI" font-size="8.249999754130847pt" fill="#000000" style="text-anchor:start" transform="matrix(0.750000 0.000000 0.000000 0.750000 178.79998779296875 312)">AGBuff10K</text>
  <path d="M253.19996643066406,335.6999816894531 C253.19996643066406,348.78912353515625 236.5449676513672,359.3999938964844 216,359.3999938964844 C195.4550018310547,359.3999938964844 178.79998779296875,348.7891540527344 178.7999725341797,335.70001220703125 L178.7999725341797,335.70001220703125 C178.79995727539062,322.61083984375 195.4549560546875,312 215.99993896484375,312 C236.54493713378906,311.9999694824219 253.199951171875,322.6108093261719 253.19996643066406,335.6999816894531 C253.19996643066406,335.6999816894531 253.19996643066406,335.6999816894531 253.19996643066406,335.6999816894531 " stroke="none" fill="none" stroke-width="0.75" stroke-opacity="0" />
  <path d="M276.70391845703125,249.59999084472656 L334.0960388183594,249.59999084472656 L334.09600830078125,249.59999084472656 C338.7926025390625,249.5999755859375 342.5999450683594,253.40731811523438 342.5999450683594,258.1039123535156 C342.5999450683594,258.1039123535156 342.5999450683594,258.1039123535156 342.5999450683594,258.1039123535156 L342.5999755859375,258.1039123535156 L342.5999755859375,288.49603271484375 L342.5999450683594,288.49603271484375 C342.5999450683594,293.192626953125 338.7926330566406,296.9999694824219 334.0960388183594,296.9999694824219 L334.0960388183594,296.9999694824219 L276.70391845703125,296.9999694824219 L276.70391845703125,296.9999694824219 C272.00732421875,296.9999694824219 268.1999816894531,293.192626953125 268.1999816894531,288.49603271484375 L268.1999816894531,258.1039123535156 L268.199951171875,258.1039123535156 C268.199951171875,253.40733337402344 272.0072937011719,249.59999084472656 276.7038879394531,249.5999755859375 " stroke="none" fill="#F2E279" fill-rule="evenodd" stroke-width="0" fill-opacity="1" />
  <text x="33.75952911376953" y="36.154998779296875" dx="0" dy="0" font-family="Segoe UI" font-size="8.249999754130847pt" fill="#000000" style="text-anchor:start" transform="matrix(0.750000 0.000000 0.000000 0.750000 268.1999816894531 249.59999084472656)">Merge</text>
  <path d="M276.70391845703125,249.59999084472656 L334.0960388183594,249.59999084472656 L334.09600830078125,249.59999084472656 C338.7926025390625,249.5999755859375 342.5999450683594,253.40731811523438 342.5999450683594,258.1039123535156 C342.5999450683594,258.1039123535156 342.5999450683594,258.1039123535156 342.5999450683594,258.1039123535156 L342.5999755859375,258.1039123535156 L342.5999755859375,288.49603271484375 L342.5999450683594,288.49603271484375 C342.5999450683594,293.192626953125 338.7926330566406,296.9999694824219 334.0960388183594,296.9999694824219 L334.0960388183594,296.9999694824219 L276.70391845703125,296.9999694824219 L276.70391845703125,296.9999694824219 C272.00732421875,296.9999694824219 268.1999816894531,293.192626953125 268.1999816894531,288.49603271484375 L268.1999816894531,258.1039123535156 L268.199951171875,258.1039123535156 C268.199951171875,253.40733337402344 272.0072937011719,249.59999084472656 276.7038879394531,249.5999755859375 " stroke="none" fill="none" stroke-width="0.75" stroke-opacity="0" />
  <path d="M431.99993896484375,273.2999572753906 C431.99993896484375,286.3891296386719 415.3449401855469,296.9999694824219 394.79998779296875,296.9999694824219 C374.2549743652344,296.9999694824219 357.5999755859375,286.3891296386719 357.5999450683594,273.29998779296875 L357.5999450683594,273.29998779296875 C357.5999450683594,260.2108459472656 374.25494384765625,249.59999084472656 394.7999267578125,249.59999084472656 C415.34490966796875,249.5999755859375 431.99993896484375,260.2108154296875 431.99993896484375,273.29998779296875 C431.99993896484375,273.29998779296875 431.99993896484375,273.29998779296875 431.99993896484375,273.29998779296875 " stroke="none" fill="#83CC7C" fill-rule="evenodd" stroke-width="0" fill-opacity="1" />
  <text x="33.01285934448242" y="36.154998779296875" dx="0" dy="0" font-family="Segoe UI" font-size="8.249999754130847pt" fill="#000000" style="text-anchor:start" transform="matrix(0.750000 0.000000 0.000000 0.750000 357.5999755859375 249.59999084472656)">AllBUff</text>
  <path d="M431.99993896484375,273.2999572753906 C431.99993896484375,286.3891296386719 415.3449401855469,296.9999694824219 394.79998779296875,296.9999694824219 C374.2549743652344,296.9999694824219 357.5999755859375,286.3891296386719 357.5999450683594,273.29998779296875 L357.5999450683594,273.29998779296875 C357.5999450683594,260.2108459472656 374.25494384765625,249.59999084472656 394.7999267578125,249.59999084472656 C415.34490966796875,249.5999755859375 431.99993896484375,260.2108154296875 431.99993896484375,273.29998779296875 C431.99993896484375,273.29998779296875 431.99993896484375,273.29998779296875 431.99993896484375,273.29998779296875 " stroke="none" fill="none" stroke-width="0.75" stroke-opacity="0" />
  <path d="M455.5039367675781,0 L512.8960571289062,0 L512.89599609375,-0 C517.5925903320312,-7.152557373046875E-06 521.3999633789062,3.807328701019287 521.3999633789062,8.503933906555176 C521.3999633789062,8.503935813903809 521.3999633789062,8.503937721252441 521.3999633789062,8.503938674926758 L521.3999633789062,8.503936767578125 L521.3999633789062,38.89606475830078 L521.3999633789062,38.89605712890625 C521.3999633789062,43.5926513671875 517.5926513671875,47.399993896484375 512.8960571289062,47.39999771118164 L512.8960571289062,47.39999771118164 L455.5039367675781,47.39999771118164 L455.5039367675781,47.39999771118164 C450.8073425292969,47.39999771118164 447,43.59265899658203 447,38.89606475830078 L447,8.503936767578125 L446.9999694824219,8.503941535949707 C446.9999694824219,3.8073480129241943 450.80731201171875,3.5762786865234375E-06 455.50390625,-7.152557373046875E-07 " stroke="none" fill="#F2E279" fill-rule="evenodd" stroke-width="0" fill-opacity="1" />
  <text x="35.039527893066406" y="36.154998779296875" dx="0" dy="0" font-family="Segoe UI" font-size="8.249999754130847pt" fill="#000000" style="text-anchor:start" transform="matrix(0.750000 0.000000 0.000000 0.750000 447 0)">Union</text>
  <path d="M455.5039367675781,0 L512.8960571289062,0 L512.89599609375,-0 C517.5925903320312,-7.152557373046875E-06 521.3999633789062,3.807328701019287 521.3999633789062,8.503933906555176 C521.3999633789062,8.503935813903809 521.3999633789062,8.503937721252441 521.3999633789062,8.503938674926758 L521.3999633789062,8.503936767578125 L521.3999633789062,38.89606475830078 L521.3999633789062,38.89605712890625 C521.3999633789062,43.5926513671875 517.5926513671875,47.399993896484375 512.8960571289062,47.39999771118164 L512.8960571289062,47.39999771118164 L455.5039367675781,47.39999771118164 L455.5039367675781,47.39999771118164 C450.8073425292969,47.39999771118164 447,43.59265899658203 447,38.89606475830078 L447,8.503936767578125 L446.9999694824219,8.503941535949707 C446.9999694824219,3.8073480129241943 450.80731201171875,3.5762786865234375E-06 455.50390625,-7.152557373046875E-07 " stroke="none" fill="none" stroke-width="0.75" stroke-opacity="0" />
  <path d="M610.7999267578125,23.699993133544922 C610.7999267578125,36.78913879394531 594.1448974609375,47.399993896484375 573.5999755859375,47.39999771118164 C553.054931640625,47.400001525878906 536.3999633789062,36.78915786743164 536.39990234375,23.700014114379883 L536.39990234375,23.70001792907715 C536.39990234375,10.610868453979492 553.054931640625,8.58306884765625E-06 573.5999145507812,-0 C594.1448974609375,-1.0013580322265625E-05 610.7999267578125,10.610833168029785 610.7999267578125,23.69999885559082 C610.7999267578125,23.69999885559082 610.7999267578125,23.69999885559082 610.7999267578125,23.69999885559082 " stroke="none" fill="#83CC7C" fill-rule="evenodd" stroke-width="0" fill-opacity="1" />
  <text x="16.169527053833008" y="36.154998779296875" dx="0" dy="0" font-family="Segoe UI" font-size="8.249999754130847pt" fill="#000000" style="text-anchor:start" transform="matrix(0.750000 0.000000 0.000000 0.750000 536.3999633789062 0)">AllBUff_Union</text>
  <path d="M610.7999267578125,23.699993133544922 C610.7999267578125,36.78913879394531 594.1448974609375,47.399993896484375 573.5999755859375,47.39999771118164 C553.054931640625,47.400001525878906 536.3999633789062,36.78915786743164 536.39990234375,23.700014114379883 L536.39990234375,23.70001792907715 C536.39990234375,10.610868453979492 553.054931640625,8.58306884765625E-06 573.5999145507812,-0 C594.1448974609375,-1.0013580322265625E-05 610.7999267578125,10.610833168029785 610.7999267578125,23.69999885559082 C610.7999267578125,23.69999885559082 610.7999267578125,23.69999885559082 610.7999267578125,23.69999885559082 " stroke="none" fill="none" stroke-width="0.75" stroke-opacity="0" />
  <path d="M634.3038940429688,0 L691.696044921875,0 L691.6959838867188,-0 C696.392578125,-7.152557373046875E-06 700.199951171875,3.807328701019287 700.199951171875,8.503933906555176 C700.199951171875,8.503935813903809 700.199951171875,8.503937721252441 700.199951171875,8.503938674926758 L700.199951171875,8.503936767578125 L700.199951171875,38.89606475830078 L700.199951171875,38.89605712890625 C700.199951171875,43.5926513671875 696.3926391601562,47.399993896484375 691.696044921875,47.39999771118164 L691.696044921875,47.39999771118164 L634.3038940429688,47.39999771118164 L634.3038940429688,47.39999771118164 C629.6072998046875,47.39999771118164 625.7999877929688,43.59265899658203 625.7999877929688,38.89606475830078 L625.7999877929688,8.503936767578125 L625.7999267578125,8.503941535949707 C625.7999267578125,3.8073480129241943 629.6072998046875,3.5762786865234375E-06 634.3038940429688,-7.152557373046875E-07 " stroke="none" fill="#F2E279" fill-rule="evenodd" stroke-width="0" fill-opacity="1" />
  <text x="16.61952781677246" y="28.84000015258789" dx="0" dy="0" font-family="Segoe UI" font-size="8.249999754130847pt" fill="#000000" style="text-anchor:start" transform="matrix(0.750000 0.000000 0.000000 0.750000 625.7999877929688 0)">Make Feature </text>
  <text x="28.97286033630371" y="43.470001220703125" dx="0" dy="0" font-family="Segoe UI" font-size="8.249999754130847pt" fill="#000000" style="text-anchor:start" transform="matrix(0.750000 0.000000 0.000000 0.750000 625.7999877929688 0)">Layer (2)</text>
  <path d="M634.3038940429688,0 L691.696044921875,0 L691.6959838867188,-0 C696.392578125,-7.152557373046875E-06 700.199951171875,3.807328701019287 700.199951171875,8.503933906555176 C700.199951171875,8.503935813903809 700.199951171875,8.503937721252441 700.199951171875,8.503938674926758 L700.199951171875,8.503936767578125 L700.199951171875,38.89606475830078 L700.199951171875,38.89605712890625 C700.199951171875,43.5926513671875 696.3926391601562,47.399993896484375 691.696044921875,47.39999771118164 L691.696044921875,47.39999771118164 L634.3038940429688,47.39999771118164 L634.3038940429688,47.39999771118164 C629.6072998046875,47.39999771118164 625.7999877929688,43.59265899658203 625.7999877929688,38.89606475830078 L625.7999877929688,8.503936767578125 L625.7999267578125,8.503941535949707 C625.7999267578125,3.8073480129241943 629.6072998046875,3.5762786865234375E-06 634.3038940429688,-7.152557373046875E-07 " stroke="none" fill="none" stroke-width="0.75" stroke-opacity="0" />
  <path d="M789.5999145507812,23.699993133544922 C789.5999145507812,36.78913879394531 772.9448852539062,47.399993896484375 752.3999633789062,47.39999771118164 C731.8549194335938,47.400001525878906 715.199951171875,36.78915786743164 715.1998901367188,23.700014114379883 L715.1998901367188,23.70001792907715 C715.1998901367188,10.610868453979492 731.8549194335938,8.58306884765625E-06 752.39990234375,-0 C772.9448852539062,-1.0013580322265625E-05 789.5999145507812,10.610833168029785 789.5999145507812,23.69999885559082 C789.5999145507812,23.69999885559082 789.5999145507812,23.69999885559082 789.5999145507812,23.69999885559082 " stroke="none" fill="#83CC7C" fill-rule="evenodd" stroke-width="0" fill-opacity="1" />
  <text x="19.42619514465332" y="36.154998779296875" dx="0" dy="0" font-family="Segoe UI" font-size="8.249999754130847pt" fill="#000000" style="text-anchor:start" transform="matrix(0.750000 0.000000 0.000000 0.750000 715.199951171875 0)">TempResults</text>
  <path d="M789.5999145507812,23.699993133544922 C789.5999145507812,36.78913879394531 772.9448852539062,47.399993896484375 752.3999633789062,47.39999771118164 C731.8549194335938,47.400001525878906 715.199951171875,36.78915786743164 715.1998901367188,23.700014114379883 L715.1998901367188,23.70001792907715 C715.1998901367188,10.610868453979492 731.8549194335938,8.58306884765625E-06 752.39990234375,-0 C772.9448852539062,-1.0013580322265625E-05 789.5999145507812,10.610833168029785 789.5999145507812,23.69999885559082 C789.5999145507812,23.69999885559082 789.5999145507812,23.69999885559082 789.5999145507812,23.69999885559082 " stroke="none" fill="none" stroke-width="0.75" stroke-opacity="0" />
</svg>