<?xml version="1.0"?>
<svg xmlns="http://www.w3.org/2000/svg" version="1.1" width="1078.9808349609375pt" height="472.81182861328125pt" viewBox="-104.47217303055982 -17.592520236968994 1078.9808527139517 472.81183433532715" preserveAspectRatio="none" xmlns:xlink="http://www.w3.org/1999/xlink">
  <defs>
    <linearGradient id="Gradient0" x1="0.00" y1="0.00" x2="0.71" y2="0.71">
      <stop offset="5%" stop-color="#FFFFFF" stop-opacity="1" />
      <stop offset="95%" stop-color="#C6CEDA" stop-opacity="1" />
    </linearGradient>
    <linearGradient id="Gradient1" x1="0.00" y1="0.00" x2="0.71" y2="0.71">
      <stop offset="5%" stop-color="#FFFFFF" stop-opacity="1" />
      <stop offset="95%" stop-color="#C6CEDA" stop-opacity="1" />
    </linearGradient>
    <linearGradient id="Gradient2" x1="0.00" y1="0.00" x2="0.71" y2="0.71">
      <stop offset="5%" stop-color="#FFFFFF" stop-opacity="1" />
      <stop offset="95%" stop-color="#C6CEDA" stop-opacity="1" />
    </linearGradient>
  </defs>
  <path d="M89.37686920166016,38.99176025390625 L98.7001724243164,39.06493377685547 " stroke="#6E6E6E" fill="none" stroke-width="1" stroke-opacity="1" />
  <path d="M104.39999389648438,39.10966491699219 L98.68274688720703,41.28486633300781 L98.71759033203125,36.845001220703125 L104.39999389648438,39.10966491699219 " stroke="none" fill="#6E6E6E" fill-rule="evenodd" stroke-width="0" fill-opacity="1" />
  <path d="M104.39999389648438,39.10966491699219 L98.68274688720703,41.28486633300781 L98.71759033203125,36.845001220703125 L104.39999389648438,39.10966491699219 " stroke="#6E6E6E" fill="none" stroke-width="1" stroke-opacity="1" />
  <path d="M89.37686920166016,194.99176025390625 L98.7001724243164,195.06492614746094 " stroke="#6E6E6E" fill="none" stroke-width="1" stroke-opacity="1" />
  <path d="M104.39999389648438,195.10964965820312 L98.68274688720703,197.28485107421875 L98.71759033203125,192.84498596191406 L104.39999389648438,195.10964965820312 " stroke="none" fill="#6E6E6E" fill-rule="evenodd" stroke-width="0" fill-opacity="1" />
  <path d="M104.39999389648438,195.10964965820312 L98.68274688720703,197.28485107421875 L98.71759033203125,192.84498596191406 L104.39999389648438,195.10964965820312 " stroke="#6E6E6E" fill="none" stroke-width="1" stroke-opacity="1" />
  <path d="M268.180419921875,39.154808044433594 L293.7969970703125,38.98476791381836 " stroke="#6E6E6E" fill="none" stroke-width="1" stroke-opacity="1" />
  <path d="M299.4968566894531,38.946929931640625 L293.81170654296875,41.204715728759766 L293.7822570800781,36.76481628417969 L299.4968566894531,38.946929931640625 " stroke="none" fill="#6E6E6E" fill-rule="evenodd" stroke-width="0" fill-opacity="1" />
  <path d="M299.4968566894531,38.946929931640625 L293.81170654296875,41.204715728759766 L293.7822570800781,36.76481628417969 L299.4968566894531,38.946929931640625 " stroke="#6E6E6E" fill="none" stroke-width="1" stroke-opacity="1" />
  <path d="M268.180419921875,101.5548095703125 L293.7969970703125,101.384765625 " stroke="#6E6E6E" fill="none" stroke-width="1" stroke-opacity="1" />
  <path d="M299.4968566894531,101.34693145751953 L293.81170654296875,103.6047134399414 L293.7822570800781,99.1648178100586 L299.4968566894531,101.34693145751953 " stroke="none" fill="#6E6E6E" fill-rule="evenodd" stroke-width="0" fill-opacity="1" />
  <path d="M299.4968566894531,101.34693145751953 L293.81170654296875,103.6047134399414 L293.7822570800781,99.1648178100586 L299.4968566894531,101.34693145751953 " stroke="#6E6E6E" fill="none" stroke-width="1" stroke-opacity="1" />
  <path d="M268.1999816894531,350.6999816894531 L293.7968444824219,350.6999816894531 " stroke="#6E6E6E" fill="none" stroke-width="1" stroke-opacity="1" />
  <path d="M299.49688720703125,350.6999816894531 L293.796875,352.91998291015625 L293.796875,348.4800109863281 L299.49688720703125,350.6999816894531 " stroke="none" fill="#6E6E6E" fill-rule="evenodd" stroke-width="0" fill-opacity="1" />
  <path d="M299.49688720703125,350.6999816894531 L293.796875,352.91998291015625 L293.796875,348.4800109863281 L299.49688720703125,350.6999816894531 " stroke="#6E6E6E" fill="none" stroke-width="1" stroke-opacity="1" />
  <path d="M268.1999816894531,413.0999755859375 L293.7968444824219,413.0999755859375 " stroke="#6E6E6E" fill="none" stroke-width="1" stroke-opacity="1" />
  <path d="M299.49688720703125,413.0999755859375 L293.796875,415.3199768066406 L293.796875,410.8800048828125 L299.49688720703125,413.0999755859375 " stroke="none" fill="#6E6E6E" fill-rule="evenodd" stroke-width="0" fill-opacity="1" />
  <path d="M299.49688720703125,413.0999755859375 L293.796875,415.3199768066406 L293.796875,410.8800048828125 L299.49688720703125,413.0999755859375 " stroke="#6E6E6E" fill="none" stroke-width="1" stroke-opacity="1" />
  <path d="M642.0884399414062,100.99360656738281 L672.7864990234375,100.9057846069336 " stroke="#6E6E6E" fill="none" stroke-width="1" stroke-opacity="1" />
  <path d="M678.4864501953125,100.88947296142578 L672.7928466796875,103.12577056884766 L672.7801513671875,98.685791015625 L678.4864501953125,100.88947296142578 " stroke="none" fill="#6E6E6E" fill-rule="evenodd" stroke-width="0" fill-opacity="1" />
  <path d="M678.4864501953125,100.88947296142578 L672.7928466796875,103.12577056884766 L672.7801513671875,98.685791015625 L678.4864501953125,100.88947296142578 " stroke="#6E6E6E" fill="none" stroke-width="1" stroke-opacity="1" />
  <path d="M89.39998626708984,38.69999313354492 C89.39998626708984,51.78913879394531 72.74497985839844,62.399993896484375 52.20001220703125,62.39999771118164 C31.655027389526367,62.400001525878906 15.000014305114746,51.78915786743164 14.99999713897705,38.70001220703125 L14.999994277954102,38.700016021728516 C14.999977111816406,25.610868453979492 31.65497398376465,15.000008583068848 52.1999626159668,15 C72.74494934082031,14.99998950958252 89.39996337890625,25.61083221435547 89.39998626708984,38.69999694824219 C89.39998626708984,38.69999694824219 89.39998626708984,38.69999694824219 89.39998626708984,38.69999694824219 " stroke="none" fill="#70AECC" fill-rule="evenodd" stroke-width="0" fill-opacity="1" />
  <text x="25.571855545043945" y="35.284881591796875" dx="0" dy="0" font-family="Segoe UI" font-size="8.249999754130847pt" fill="#000000" style="text-anchor:start" transform="matrix(0.750000 0.000000 0.000000 0.750000 15 15)">Elevation</text>
  <path d="M89.39998626708984,38.69999313354492 C89.39998626708984,51.78913879394531 72.74497985839844,62.399993896484375 52.20001220703125,62.39999771118164 C31.655027389526367,62.400001525878906 15.000014305114746,51.78915786743164 14.99999713897705,38.70001220703125 L14.999994277954102,38.700016021728516 C14.999977111816406,25.610868453979492 31.65497398376465,15.000008583068848 52.1999626159668,15 C72.74494934082031,14.99998950958252 89.39996337890625,25.61083221435547 89.39998626708984,38.69999694824219 C89.39998626708984,38.69999694824219 89.39998626708984,38.69999694824219 89.39998626708984,38.69999694824219 " stroke="none" fill="none" stroke-width="0.75" stroke-opacity="0" />
  <path d="M89.39998626708984,194.69998168945312 C89.39998626708984,207.7891387939453 72.74497985839844,218.39999389648438 52.20001220703125,218.39999389648438 C31.655027389526367,218.39999389648438 15.000014305114746,207.78915405273438 14.99999713897705,194.70001220703125 L14.999994277954102,194.70001220703125 C14.999977111816406,181.61085510253906 31.65497398376465,171 52.1999626159668,171 C72.74494934082031,170.99998474121094 89.39996337890625,181.61082458496094 89.39998626708984,194.6999969482422 C89.39998626708984,194.6999969482422 89.39998626708984,194.6999969482422 89.39998626708984,194.6999969482422 " stroke="none" fill="#70AECC" fill-rule="evenodd" stroke-width="0" fill-opacity="1" />
  <text x="32.45868682861328" y="35.284881591796875" dx="0" dy="0" font-family="Segoe UI" font-size="8.249999754130847pt" fill="#000000" style="text-anchor:start" transform="matrix(0.750000 0.000000 0.000000 0.750000 15 171)">Roads</text>
  <path d="M89.39998626708984,194.69998168945312 C89.39998626708984,207.7891387939453 72.74497985839844,218.39999389648438 52.20001220703125,218.39999389648438 C31.655027389526367,218.39999389648438 15.000014305114746,207.78915405273438 14.99999713897705,194.70001220703125 L14.999994277954102,194.70001220703125 C14.999977111816406,181.61085510253906 31.65497398376465,171 52.1999626159668,171 C72.74494934082031,170.99998474121094 89.39996337890625,181.61082458496094 89.39998626708984,194.6999969482422 C89.39998626708984,194.6999969482422 89.39998626708984,194.6999969482422 89.39998626708984,194.6999969482422 " stroke="none" fill="none" stroke-width="0.75" stroke-opacity="0" />
  <path d="M268.199951171875,350.6999816894531 C268.199951171875,363.78912353515625 251.5449676513672,374.3999938964844 231,374.3999938964844 C210.4550018310547,374.3999938964844 193.79998779296875,363.7891540527344 193.7999725341797,350.70001220703125 L193.7999725341797,350.70001220703125 C193.79995727539062,337.61083984375 210.4549560546875,327 230.99993896484375,327 C251.54493713378906,326.9999694824219 268.199951171875,337.6108093261719 268.199951171875,350.6999816894531 C268.199951171875,350.6999816894531 268.199951171875,350.6999816894531 268.199951171875,350.6999816894531 " stroke="none" fill="#70AECC" fill-rule="evenodd" stroke-width="0" fill-opacity="1" />
  <text x="20.421022415161133" y="35.284881591796875" dx="0" dy="0" font-family="Segoe UI" font-size="8.249999754130847pt" fill="#000000" style="text-anchor:start" transform="matrix(0.750000 0.000000 0.000000 0.750000 193.79998779296875 327)">Land Cover</text>
  <path d="M268.199951171875,350.6999816894531 C268.199951171875,363.78912353515625 251.5449676513672,374.3999938964844 231,374.3999938964844 C210.4550018310547,374.3999938964844 193.79998779296875,363.7891540527344 193.7999725341797,350.70001220703125 L193.7999725341797,350.70001220703125 C193.79995727539062,337.61083984375 210.4549560546875,327 230.99993896484375,327 C251.54493713378906,326.9999694824219 268.199951171875,337.6108093261719 268.199951171875,350.6999816894531 C268.199951171875,350.6999816894531 268.199951171875,350.6999816894531 268.199951171875,350.6999816894531 " stroke="none" fill="none" stroke-width="0.75" stroke-opacity="0" />
  <path d="M268.199951171875,413.1000061035156 C268.199951171875,426.18914794921875 251.5449676513672,436.8000183105469 231,436.8000183105469 C210.4550018310547,436.8000183105469 193.79998779296875,426.1891784667969 193.7999725341797,413.10003662109375 L193.7999725341797,413.10003662109375 C193.79995727539062,400.0108642578125 210.4549560546875,389.4000244140625 230.99993896484375,389.4000244140625 C251.54493713378906,389.3999938964844 268.199951171875,400.0108337402344 268.199951171875,413.1000061035156 C268.199951171875,413.1000061035156 268.199951171875,413.1000061035156 268.199951171875,413.1000061035156 " stroke="none" fill="#70AECC" fill-rule="evenodd" stroke-width="0" fill-opacity="1" />
  <text x="6.754855632781982" y="35.284881591796875" dx="0" dy="0" font-family="Segoe UI" font-size="8.249999754130847pt" fill="#000000" style="text-anchor:start" transform="matrix(0.750000 0.000000 0.000000 0.750000 193.79998779296875 389.4000244140625)">Protected_Status</text>
  <path d="M268.199951171875,413.1000061035156 C268.199951171875,426.18914794921875 251.5449676513672,436.8000183105469 231,436.8000183105469 C210.4550018310547,436.8000183105469 193.79998779296875,426.1891784667969 193.7999725341797,413.10003662109375 L193.7999725341797,413.10003662109375 C193.79995727539062,400.0108642578125 210.4549560546875,389.4000244140625 230.99993896484375,389.4000244140625 C251.54493713378906,389.3999938964844 268.199951171875,400.0108337402344 268.199951171875,413.1000061035156 C268.199951171875,413.1000061035156 268.199951171875,413.1000061035156 268.199951171875,413.1000061035156 " stroke="none" fill="none" stroke-width="0.75" stroke-opacity="0" />
  <path d="M99.14999389648438,-7.471616744995117 L273.4499816894531,-7.471616744995117 L273.449951171875,-7.471616744995117 C275.5210266113281,-7.471620559692383 277.199951171875,-5.792690753936768 277.199951171875,-3.721618175506592 C277.199951171875,-3.7216174602508545 277.199951171875,-3.721616506576538 277.199951171875,-3.721615791320801 L277.1999816894531,-3.721616744995117 L277.1999816894531,317.95159912109375 L277.199951171875,317.9515686035156 C277.199951171875,320.0226745605469 275.5210266113281,321.7015686035156 273.4499816894531,321.7015686035156 L273.4499816894531,321.70159912109375 L99.14999389648438,321.70159912109375 L99.14999389648438,321.7015686035156 C97.07892608642578,321.70159912109375 95.39999389648438,320.0226745605469 95.39999389648438,317.95159912109375 L95.39999389648438,-3.721616744995117 L95.39998626708984,-3.7216145992279053 C95.39998626708984,-5.79268217086792 97.07891845703125,-7.471615314483643 99.14998626708984,-7.471617221832275 " stroke="none" fill="none" fill-rule="evenodd" stroke-width="0" fill-opacity="0" />
  <path d="M95.39999389648438,-7.471616744995117 L277.1999816894531,-7.471616744995117 L277.1999816894531,6.701611518859863 L95.39999389648438,6.701611518859863  z" stroke="none" fill="#F2E279" fill-rule="evenodd" stroke-width="0" fill-opacity="1" />
  <text x="61.44866180419922" y="13.133702278137207" dx="0" dy="0" font-family="Segoe UI" font-size="8.249999754130847pt" fill="#000000" style="text-anchor:start" transform="matrix(0.750000 0.000000 0.000000 0.750000 95.39999389648438 -7.471616744995117)">Preprocess datasets</text>
  <path d="M95.39999389648438,6.701611518859863 L277.1999816894531,6.701611518859863 " stroke="#F2E279" fill="none" stroke-width="5" stroke-opacity="1" />
  <path d="M99.14999389648438,-7.471616744995117 L273.4499816894531,-7.471616744995117 L273.449951171875,-7.471616744995117 C275.5210266113281,-7.471620559692383 277.199951171875,-5.792690753936768 277.199951171875,-3.721618175506592 C277.199951171875,-3.7216174602508545 277.199951171875,-3.721616506576538 277.199951171875,-3.721615791320801 L277.1999816894531,-3.721616744995117 L277.1999816894531,317.95159912109375 L277.199951171875,317.9515686035156 C277.199951171875,320.0226745605469 275.5210266113281,321.7015686035156 273.4499816894531,321.7015686035156 L273.4499816894531,321.70159912109375 L99.14999389648438,321.70159912109375 L99.14999389648438,321.7015686035156 C97.07892608642578,321.70159912109375 95.39999389648438,320.0226745605469 95.39999389648438,317.95159912109375 L95.39999389648438,-3.721616744995117 L95.39998626708984,-3.7216145992279053 C95.39998626708984,-5.79268217086792 97.07891845703125,-7.471615314483643 99.14998626708984,-7.471617221832275 " stroke="#F2E279" fill="none" stroke-width="5" stroke-opacity="1" />
  <path d="M274.36529541015625,-0.38500261306762695 C274.36529541015625,1.9632940292358398 272.4616394042969,3.8669662475585938 270.11334228515625,3.8669662475585938 C267.7650451660156,3.8669662475585938 265.86138916015625,1.9632940292358398 265.86138916015625,-0.38500261306762695 C265.86138916015625,-2.73330020904541 267.7650451660156,-4.6369709968566895 270.11334228515625,-4.6369709968566895 C272.4616394042969,-4.6369709968566895 274.36529541015625,-2.73330020904541 274.36529541015625,-0.38500261306762695 " stroke="none" fill="url(#Gradient0)" fill-rule="evenodd" stroke-width="0" fill-opacity="1" />
  <path d="M274.36529541015625,-0.38500261306762695 C274.36529541015625,1.9632940292358398 272.4616394042969,3.8669662475585938 270.11334228515625,3.8669662475585938 C267.7650451660156,3.8669662475585938 265.86138916015625,1.9632940292358398 265.86138916015625,-0.38500261306762695 C265.86138916015625,-2.73330020904541 267.7650451660156,-4.6369709968566895 270.11334228515625,-4.6369709968566895 C272.4616394042969,-4.6369709968566895 274.36529541015625,-2.73330020904541 274.36529541015625,-0.38500261306762695 " stroke="#808080" fill="none" stroke-width="1" stroke-opacity="1" />
  <path d="M270.1133728027344,-1.235396385192871 L268.4125671386719,0.4653916358947754 " stroke="#000000" fill="none" stroke-width="1" stroke-opacity="1" />
  <path d="M270.1133728027344,-1.235396385192871 L271.81414794921875,0.4653916358947754 " stroke="#000000" fill="none" stroke-width="1" stroke-opacity="1" />
  <path d="M270.1133728027344,0.2646036148071289 L269.9125671386719,0.4653916358947754 " stroke="#000000" fill="none" stroke-width="1" stroke-opacity="1" />
  <path d="M270.1133728027344,0.2646036148071289 L270.31414794921875,0.4653916358947754 " stroke="#000000" fill="none" stroke-width="1" stroke-opacity="1" />
  <path d="M178.79998779296875,39.401611328125 L188.09999084472656,39.401611328125 " stroke="#6E6E6E" fill="none" stroke-width="1" stroke-opacity="1" />
  <path d="M193.79998779296875,39.401607513427734 L188.0999755859375,41.62160873413086 L188.0999755859375,37.181610107421875 L193.79998779296875,39.401607513427734 " stroke="none" fill="#6E6E6E" fill-rule="evenodd" stroke-width="0" fill-opacity="1" />
  <path d="M193.79998779296875,39.401607513427734 L188.0999755859375,41.62160873413086 L188.0999755859375,37.181610107421875 L193.79998779296875,39.401607513427734 " stroke="#6E6E6E" fill="none" stroke-width="1" stroke-opacity="1" />
  <path d="M164.2365264892578,171.7016143798828 L207.7888641357422,126.10320281982422 " stroke="#6E6E6E" fill="none" stroke-width="1" stroke-opacity="1" />
  <path d="M211.725830078125,121.98126983642578 L209.3942413330078,127.63654327392578 L206.1834716796875,124.56985473632812 L211.725830078125,121.98126983642578 " stroke="none" fill="#6E6E6E" fill-rule="evenodd" stroke-width="0" fill-opacity="1" />
  <path d="M211.725830078125,121.98126983642578 L209.3942413330078,127.63654327392578 L206.1834716796875,124.56985473632812 L211.725830078125,121.98126983642578 " stroke="#6E6E6E" fill="none" stroke-width="1" stroke-opacity="1" />
  <path d="M178.79998779296875,182.41905212402344 L192.99313354492188,177.46572875976562 " stroke="#6E6E6E" fill="none" stroke-width="1" stroke-opacity="1" />
  <path d="M198.3748321533203,175.5875701904297 L193.72463989257812,179.56175231933594 L192.2616424560547,175.36972045898438 L198.3748321533203,175.5875701904297 " stroke="none" fill="#6E6E6E" fill-rule="evenodd" stroke-width="0" fill-opacity="1" />
  <path d="M198.3748321533203,175.5875701904297 L193.72463989257812,179.56175231933594 L192.2616424560547,175.36972045898438 L198.3748321533203,175.5875701904297 " stroke="#6E6E6E" fill="none" stroke-width="1" stroke-opacity="1" />
  <path d="M178.79998779296875,208.3841552734375 L192.9931640625,213.3374786376953 " stroke="#6E6E6E" fill="none" stroke-width="1" stroke-opacity="1" />
  <path d="M198.37481689453125,215.2156524658203 L192.2616424560547,215.43350219726562 L193.72463989257812,211.241455078125 L198.37481689453125,215.2156524658203 " stroke="none" fill="#6E6E6E" fill-rule="evenodd" stroke-width="0" fill-opacity="1" />
  <path d="M198.37481689453125,215.2156524658203 L192.2616424560547,215.43350219726562 L193.72463989257812,211.241455078125 L198.37481689453125,215.2156524658203 " stroke="#6E6E6E" fill="none" stroke-width="1" stroke-opacity="1" />
  <path d="M164.23654174804688,219.10162353515625 L207.7888641357422,264.70001220703125 " stroke="#6E6E6E" fill="none" stroke-width="1" stroke-opacity="1" />
  <path d="M211.72581481933594,268.8219299316406 L206.1834716796875,266.23333740234375 L209.3942413330078,263.1666564941406 L211.72581481933594,268.8219299316406 " stroke="none" fill="#6E6E6E" fill-rule="evenodd" stroke-width="0" fill-opacity="1" />
  <path d="M211.72581481933594,268.8219299316406 L206.1834716796875,266.23333740234375 L209.3942413330078,263.1666564941406 L211.72581481933594,268.8219299316406 " stroke="#6E6E6E" fill="none" stroke-width="1" stroke-opacity="1" />
  <path d="M112.9039306640625,15.701611518859863 L170.29605102539062,15.701611518859863 L170.29603576660156,15.701611518859863 C174.99261474609375,15.701603889465332 178.7999725341797,19.508939743041992 178.7999725341797,24.20554542541504 C178.7999725341797,24.205547332763672 178.7999725341797,24.205549240112305 178.7999725341797,24.205549240112305 L178.79998779296875,24.205547332763672 L178.79998779296875,54.59767532348633 L178.7999725341797,54.5976676940918 C178.7999725341797,59.29426193237305 174.99264526367188,63.10160446166992 170.29605102539062,63.10160827636719 L170.29605102539062,63.10160827636719 L112.9039306640625,63.10160827636719 L112.9039306640625,63.10160827636719 C108.20733642578125,63.10160827636719 104.39999389648438,59.29426956176758 104.39999389648438,54.59767532348633 L104.39999389648438,24.205547332763672 L104.39998626708984,24.20555305480957 C104.39998626708984,19.50895881652832 108.20732116699219,15.701614379882812 112.90391540527344,15.701610565185547 " stroke="none" fill="#F2E279" fill-rule="evenodd" stroke-width="0" fill-opacity="1" />
  <text x="12.537522315979004" y="35.284881591796875" dx="0" dy="0" font-family="Segoe UI" font-size="8.249999754130847pt" fill="#000000" style="text-anchor:start" transform="matrix(0.750000 0.000000 0.000000 0.750000 104.39999389648438 15.701611518859863)">Focal Statistics</text>
  <path d="M112.9039306640625,15.701611518859863 L170.29605102539062,15.701611518859863 L170.29603576660156,15.701611518859863 C174.99261474609375,15.701603889465332 178.7999725341797,19.508939743041992 178.7999725341797,24.20554542541504 C178.7999725341797,24.205547332763672 178.7999725341797,24.205549240112305 178.7999725341797,24.205549240112305 L178.79998779296875,24.205547332763672 L178.79998779296875,54.59767532348633 L178.7999725341797,54.5976676940918 C178.7999725341797,59.29426193237305 174.99264526367188,63.10160446166992 170.29605102539062,63.10160827636719 L170.29605102539062,63.10160827636719 L112.9039306640625,63.10160827636719 L112.9039306640625,63.10160827636719 C108.20733642578125,63.10160827636719 104.39999389648438,59.29426956176758 104.39999389648438,54.59767532348633 L104.39999389648438,24.205547332763672 L104.39998626708984,24.20555305480957 C104.39998626708984,19.50895881652832 108.20732116699219,15.701614379882812 112.90391540527344,15.701610565185547 " stroke="none" fill="none" stroke-width="0.75" stroke-opacity="0" />
  <path d="M268.199951171875,39.40160369873047 C268.199951171875,52.49074935913086 251.5449676513672,63.10160446166992 231,63.10160827636719 C210.4550018310547,63.10161209106445 193.79998779296875,52.49076843261719 193.7999725341797,39.4016227722168 L193.7999725341797,39.40162658691406 C193.79995727539062,26.31247901916504 210.4549560546875,15.701620101928711 230.99993896484375,15.701611518859863 C251.54493713378906,15.701601028442383 268.199951171875,26.31244468688965 268.199951171875,39.401607513427734 C268.199951171875,39.401607513427734 268.199951171875,39.401607513427734 268.199951171875,39.401607513427734 " stroke="none" fill="#83CC7C" fill-rule="evenodd" stroke-width="0" fill-opacity="1" />
  <text x="17.365856170654297" y="35.284881591796875" dx="0" dy="0" font-family="Segoe UI" font-size="8.249999754130847pt" fill="#000000" style="text-anchor:start" transform="matrix(0.750000 0.000000 0.000000 0.750000 193.79998779296875 15.701611518859863)">Ruggedness</text>
  <path d="M268.199951171875,39.40160369873047 C268.199951171875,52.49074935913086 251.5449676513672,63.10160446166992 231,63.10160827636719 C210.4550018310547,63.10161209106445 193.79998779296875,52.49076843261719 193.7999725341797,39.4016227722168 L193.7999725341797,39.40162658691406 C193.79995727539062,26.31247901916504 210.4549560546875,15.701620101928711 230.99993896484375,15.701611518859863 C251.54493713378906,15.701601028442383 268.199951171875,26.31244468688965 268.199951171875,39.401607513427734 C268.199951171875,39.401607513427734 268.199951171875,39.401607513427734 268.199951171875,39.401607513427734 " stroke="none" fill="none" stroke-width="0.75" stroke-opacity="0" />
  <path d="M112.9039306640625,171.7016143798828 L170.29605102539062,171.7016143798828 L170.29603576660156,171.7016143798828 C174.99261474609375,171.70159912109375 178.7999725341797,175.50894165039062 178.7999725341797,180.20553588867188 C178.7999725341797,180.20553588867188 178.7999725341797,180.20555114746094 178.7999725341797,180.20555114746094 L178.79998779296875,180.20555114746094 L178.79998779296875,210.59767150878906 L178.7999725341797,210.59767150878906 C178.7999725341797,215.2942657470703 174.99264526367188,219.1016082763672 170.29605102539062,219.1016082763672 L170.29605102539062,219.1016082763672 L112.9039306640625,219.1016082763672 L112.9039306640625,219.1016082763672 C108.20733642578125,219.1016082763672 104.39999389648438,215.2942657470703 104.39999389648438,210.59767150878906 L104.39999389648438,180.20555114746094 L104.39998626708984,180.20555114746094 C104.39998626708984,175.5089569091797 108.20732116699219,171.7016143798828 112.90391540527344,171.70159912109375 " stroke="none" fill="#F2E279" fill-rule="evenodd" stroke-width="0" fill-opacity="1" />
  <text x="25.739356994628906" y="27.96988296508789" dx="0" dy="0" font-family="Segoe UI" font-size="8.249999754130847pt" fill="#000000" style="text-anchor:start" transform="matrix(0.750000 0.000000 0.000000 0.750000 104.39999389648438 171.7016143798828)">Distance </text>
  <text x="13.507355690002441" y="42.599884033203125" dx="0" dy="0" font-family="Segoe UI" font-size="8.249999754130847pt" fill="#000000" style="text-anchor:start" transform="matrix(0.750000 0.000000 0.000000 0.750000 104.39999389648438 171.7016143798828)">Accumulation</text>
  <path d="M112.9039306640625,171.7016143798828 L170.29605102539062,171.7016143798828 L170.29603576660156,171.7016143798828 C174.99261474609375,171.70159912109375 178.7999725341797,175.50894165039062 178.7999725341797,180.20553588867188 C178.7999725341797,180.20553588867188 178.7999725341797,180.20555114746094 178.7999725341797,180.20555114746094 L178.79998779296875,180.20555114746094 L178.79998779296875,210.59767150878906 L178.7999725341797,210.59767150878906 C178.7999725341797,215.2942657470703 174.99264526367188,219.1016082763672 170.29605102539062,219.1016082763672 L170.29605102539062,219.1016082763672 L112.9039306640625,219.1016082763672 L112.9039306640625,219.1016082763672 C108.20733642578125,219.1016082763672 104.39999389648438,215.2942657470703 104.39999389648438,210.59767150878906 L104.39999389648438,180.20555114746094 L104.39998626708984,180.20555114746094 C104.39998626708984,175.5089569091797 108.20732116699219,171.7016143798828 112.90391540527344,171.70159912109375 " stroke="none" fill="none" stroke-width="0.75" stroke-opacity="0" />
  <path d="M268.199951171875,101.80159759521484 C268.199951171875,114.8907470703125 251.5449676513672,125.50160217285156 231,125.50160217285156 C210.4550018310547,125.5016098022461 193.79998779296875,114.89076232910156 193.7999725341797,101.80162048339844 L193.7999725341797,101.80162048339844 C193.79995727539062,88.71247100830078 210.4549560546875,78.10161590576172 230.99993896484375,78.10160827636719 C251.54493713378906,78.10159301757812 268.199951171875,88.71244049072266 268.199951171875,101.80160522460938 C268.199951171875,101.80160522460938 268.199951171875,101.80160522460938 268.199951171875,101.80160522460938 " stroke="none" fill="#83CC7C" fill-rule="evenodd" stroke-width="0" fill-opacity="1" />
  <text x="1.3660223484039307" y="35.284881591796875" dx="0" dy="0" font-family="Segoe UI" font-size="8.249999754130847pt" fill="#000000" style="text-anchor:start" transform="matrix(0.750000 0.000000 0.000000 0.750000 193.79998779296875 78.10160827636719)">Distance_to_Roads</text>
  <path d="M268.199951171875,101.80159759521484 C268.199951171875,114.8907470703125 251.5449676513672,125.50160217285156 231,125.50160217285156 C210.4550018310547,125.5016098022461 193.79998779296875,114.89076232910156 193.7999725341797,101.80162048339844 L193.7999725341797,101.80162048339844 C193.79995727539062,88.71247100830078 210.4549560546875,78.10161590576172 230.99993896484375,78.10160827636719 C251.54493713378906,78.10159301757812 268.199951171875,88.71244049072266 268.199951171875,101.80160522460938 C268.199951171875,101.80160522460938 268.199951171875,101.80160522460938 268.199951171875,101.80160522460938 " stroke="none" fill="none" stroke-width="0.75" stroke-opacity="0" />
  <path d="M268.199951171875,164.20159912109375 C268.199951171875,177.29075622558594 251.5449676513672,187.901611328125 231,187.901611328125 C210.4550018310547,187.901611328125 193.79998779296875,177.290771484375 193.7999725341797,164.20162963867188 L193.7999725341797,164.20162963867188 C193.79995727539062,151.1124725341797 210.4549560546875,140.50161743164062 230.99993896484375,140.50161743164062 C251.54493713378906,140.50160217285156 268.199951171875,151.11244201660156 268.199951171875,164.2016143798828 C268.199951171875,164.2016143798828 268.199951171875,164.2016143798828 268.199951171875,164.2016143798828 " stroke="none" fill="#E7E7E7" fill-rule="evenodd" stroke-width="0" fill-opacity="1" />
  <text x="1.287855625152588" y="27.96988296508789" dx="0" dy="0" font-family="Segoe UI" font-size="8.249999754130847pt" fill="#000000" style="text-anchor:start" transform="matrix(0.750000 0.000000 0.000000 0.750000 193.79998779296875 140.50161743164062)">Out back direction </text>
  <text x="34.70085525512695" y="42.599884033203125" dx="0" dy="0" font-family="Segoe UI" font-size="8.249999754130847pt" fill="#000000" style="text-anchor:start" transform="matrix(0.750000 0.000000 0.000000 0.750000 193.79998779296875 140.50161743164062)">raster</text>
  <path d="M268.199951171875,164.20159912109375 C268.199951171875,177.29075622558594 251.5449676513672,187.901611328125 231,187.901611328125 C210.4550018310547,187.901611328125 193.79998779296875,177.290771484375 193.7999725341797,164.20162963867188 L193.7999725341797,164.20162963867188 C193.79995727539062,151.1124725341797 210.4549560546875,140.50161743164062 230.99993896484375,140.50161743164062 C251.54493713378906,140.50160217285156 268.199951171875,151.11244201660156 268.199951171875,164.2016143798828 C268.199951171875,164.2016143798828 268.199951171875,164.2016143798828 268.199951171875,164.2016143798828 " stroke="none" fill="none" stroke-width="0.75" stroke-opacity="0" />
  <path d="M268.199951171875,226.60159301757812 C268.199951171875,239.6907501220703 251.5449676513672,250.30160522460938 231,250.30160522460938 C210.4550018310547,250.30160522460938 193.79998779296875,239.69076538085938 193.7999725341797,226.60162353515625 L193.7999725341797,226.60162353515625 C193.79995727539062,213.51246643066406 210.4549560546875,202.901611328125 230.99993896484375,202.901611328125 C251.54493713378906,202.90159606933594 268.199951171875,213.51243591308594 268.199951171875,226.6016082763672 C268.199951171875,226.6016082763672 268.199951171875,226.6016082763672 268.199951171875,226.6016082763672 " stroke="none" fill="#E7E7E7" fill-rule="evenodd" stroke-width="0" fill-opacity="1" />
  <text x="19.534523010253906" y="27.96988296508789" dx="0" dy="0" font-family="Segoe UI" font-size="8.249999754130847pt" fill="#000000" style="text-anchor:start" transform="matrix(0.750000 0.000000 0.000000 0.750000 193.79998779296875 202.901611328125)">Out source </text>
  <text x="10.435355186462402" y="42.599884033203125" dx="0" dy="0" font-family="Segoe UI" font-size="8.249999754130847pt" fill="#000000" style="text-anchor:start" transform="matrix(0.750000 0.000000 0.000000 0.750000 193.79998779296875 202.901611328125)">direction raster</text>
  <path d="M268.199951171875,226.60159301757812 C268.199951171875,239.6907501220703 251.5449676513672,250.30160522460938 231,250.30160522460938 C210.4550018310547,250.30160522460938 193.79998779296875,239.69076538085938 193.7999725341797,226.60162353515625 L193.7999725341797,226.60162353515625 C193.79995727539062,213.51246643066406 210.4549560546875,202.901611328125 230.99993896484375,202.901611328125 C251.54493713378906,202.90159606933594 268.199951171875,213.51243591308594 268.199951171875,226.6016082763672 C268.199951171875,226.6016082763672 268.199951171875,226.6016082763672 268.199951171875,226.6016082763672 " stroke="none" fill="none" stroke-width="0.75" stroke-opacity="0" />
  <path d="M268.199951171875,289.0015869140625 C268.199951171875,302.0907287597656 251.5449676513672,312.70159912109375 231,312.70159912109375 C210.4550018310547,312.70159912109375 193.79998779296875,302.09075927734375 193.7999725341797,289.0016174316406 L193.7999725341797,289.0016174316406 C193.79995727539062,275.9124450683594 210.4549560546875,265.3016052246094 230.99993896484375,265.3016052246094 C251.54493713378906,265.30157470703125 268.199951171875,275.91241455078125 268.199951171875,289.0015869140625 C268.199951171875,289.0015869140625 268.199951171875,289.0015869140625 268.199951171875,289.0015869140625 " stroke="none" fill="#E7E7E7" fill-rule="evenodd" stroke-width="0" fill-opacity="1" />
  <text x="19.534523010253906" y="27.96988296508789" dx="0" dy="0" font-family="Segoe UI" font-size="8.249999754130847pt" fill="#000000" style="text-anchor:start" transform="matrix(0.750000 0.000000 0.000000 0.750000 193.79998779296875 265.3016052246094)">Out source </text>
  <text x="14.3505220413208" y="42.599884033203125" dx="0" dy="0" font-family="Segoe UI" font-size="8.249999754130847pt" fill="#000000" style="text-anchor:start" transform="matrix(0.750000 0.000000 0.000000 0.750000 193.79998779296875 265.3016052246094)">location raster</text>
  <path d="M268.199951171875,289.0015869140625 C268.199951171875,302.0907287597656 251.5449676513672,312.70159912109375 231,312.70159912109375 C210.4550018310547,312.70159912109375 193.79998779296875,302.09075927734375 193.7999725341797,289.0016174316406 L193.7999725341797,289.0016174316406 C193.79995727539062,275.9124450683594 210.4549560546875,265.3016052246094 230.99993896484375,265.3016052246094 C251.54493713378906,265.30157470703125 268.199951171875,275.91241455078125 268.199951171875,289.0015869140625 C268.199951171875,289.0015869140625 268.199951171875,289.0015869140625 268.199951171875,289.0015869140625 " stroke="none" fill="none" stroke-width="0.75" stroke-opacity="0" />
  <path d="M294.24688720703125,-8.173229217529297 L647.3468627929688,-8.173229217529297 L647.3468017578125,-8.173229217529297 C649.4179077148438,-8.173233032226562 651.0968017578125,-6.494303226470947 651.0968017578125,-4.4232306480407715 C651.0968017578125,-4.423230171203613 651.0968017578125,-4.423229217529297 651.0968017578125,-4.4232282638549805 L651.0968627929688,-4.423229217529297 L651.0968627929688,442.04998779296875 L651.0968017578125,442.0499572753906 C651.0968017578125,444.1210632324219 649.4179077148438,445.7999572753906 647.3468627929688,445.7999572753906 L647.3468627929688,445.79998779296875 L294.24688720703125,445.79998779296875 L294.24688720703125,445.7999572753906 C292.1758117675781,445.79998779296875 290.49688720703125,444.1210632324219 290.49688720703125,442.04998779296875 L290.49688720703125,-4.423229217529297 L290.4968566894531,-4.423227310180664 C290.4968566894531,-6.4942946434021 292.1758117675781,-8.17322826385498 294.2468566894531,-8.173230171203613 " stroke="none" fill="none" fill-rule="evenodd" stroke-width="0" fill-opacity="0" />
  <path d="M290.49688720703125,-8.173229217529297 L651.0968627929688,-8.173229217529297 L651.0968627929688,5.999999046325684 L290.49688720703125,5.999999046325684  z" stroke="none" fill="#F2E279" fill-rule="evenodd" stroke-width="0" fill-opacity="1" />
  <text x="182.25416564941406" y="13.133702278137207" dx="0" dy="0" font-family="Segoe UI" font-size="8.249999754130847pt" fill="#000000" style="text-anchor:start" transform="matrix(0.750000 0.000000 0.000000 0.750000 290.49688720703125 -8.173229217529297)">Create cost surface</text>
  <path d="M290.49688720703125,5.999999046325684 L651.0968627929688,5.999999046325684 " stroke="#F2E279" fill="none" stroke-width="5" stroke-opacity="1" />
  <path d="M294.24688720703125,-8.173229217529297 L647.3468627929688,-8.173229217529297 L647.3468017578125,-8.173229217529297 C649.4179077148438,-8.173233032226562 651.0968017578125,-6.494303226470947 651.0968017578125,-4.4232306480407715 C651.0968017578125,-4.423230171203613 651.0968017578125,-4.423229217529297 651.0968017578125,-4.4232282638549805 L651.0968627929688,-4.423229217529297 L651.0968627929688,442.04998779296875 L651.0968017578125,442.0499572753906 C651.0968017578125,444.1210632324219 649.4179077148438,445.7999572753906 647.3468627929688,445.7999572753906 L647.3468627929688,445.79998779296875 L294.24688720703125,445.79998779296875 L294.24688720703125,445.7999572753906 C292.1758117675781,445.79998779296875 290.49688720703125,444.1210632324219 290.49688720703125,442.04998779296875 L290.49688720703125,-4.423229217529297 L290.4968566894531,-4.423227310180664 C290.4968566894531,-6.4942946434021 292.1758117675781,-8.17322826385498 294.2468566894531,-8.173230171203613 " stroke="#F2E279" fill="none" stroke-width="5" stroke-opacity="1" />
  <path d="M648.26220703125,-1.0866150856018066 C648.26220703125,1.2616815567016602 646.3585205078125,3.165353775024414 644.01025390625,3.165353775024414 C641.6619262695312,3.165353775024414 639.7582397460938,1.2616815567016602 639.7582397460938,-1.0866150856018066 C639.7582397460938,-3.43491268157959 641.6619262695312,-5.338583469390869 644.01025390625,-5.338583469390869 C646.3585205078125,-5.338583469390869 648.26220703125,-3.43491268157959 648.26220703125,-1.0866150856018066 " stroke="none" fill="url(#Gradient1)" fill-rule="evenodd" stroke-width="0" fill-opacity="1" />
  <path d="M648.26220703125,-1.0866150856018066 C648.26220703125,1.2616815567016602 646.3585205078125,3.165353775024414 644.01025390625,3.165353775024414 C641.6619262695312,3.165353775024414 639.7582397460938,1.2616815567016602 639.7582397460938,-1.0866150856018066 C639.7582397460938,-3.43491268157959 641.6619262695312,-5.338583469390869 644.01025390625,-5.338583469390869 C646.3585205078125,-5.338583469390869 648.26220703125,-3.43491268157959 648.26220703125,-1.0866150856018066 " stroke="#808080" fill="none" stroke-width="1" stroke-opacity="1" />
  <path d="M644.01025390625,-1.9370088577270508 L642.3094482421875,-0.2362208366394043 " stroke="#000000" fill="none" stroke-width="1" stroke-opacity="1" />
  <path d="M644.01025390625,-1.9370088577270508 L645.7110595703125,-0.2362208366394043 " stroke="#000000" fill="none" stroke-width="1" stroke-opacity="1" />
  <path d="M644.01025390625,-0.4370088577270508 L643.8094482421875,-0.2362208366394043 " stroke="#000000" fill="none" stroke-width="1" stroke-opacity="1" />
  <path d="M644.01025390625,-0.4370088577270508 L644.2110595703125,-0.2362208366394043 " stroke="#000000" fill="none" stroke-width="1" stroke-opacity="1" />
  <path d="M373.8968811035156,38.69999694824219 L383.1968688964844,38.69999694824219 " stroke="#6E6E6E" fill="none" stroke-width="1" stroke-opacity="1" />
  <path d="M388.8968811035156,38.69999694824219 L383.1968688964844,40.91999816894531 L383.1968688964844,36.47999954223633 L388.8968811035156,38.69999694824219 " stroke="none" fill="#6E6E6E" fill-rule="evenodd" stroke-width="0" fill-opacity="1" />
  <path d="M388.8968811035156,38.69999694824219 L383.1968688964844,40.91999816894531 L383.1968688964844,36.47999954223633 L388.8968811035156,38.69999694824219 " stroke="#6E6E6E" fill="none" stroke-width="1" stroke-opacity="1" />
  <path d="M373.8968811035156,101.0999984741211 L383.1968688964844,101.0999984741211 " stroke="#6E6E6E" fill="none" stroke-width="1" stroke-opacity="1" />
  <path d="M388.8968811035156,101.09999084472656 L383.1968688964844,103.31999206542969 L383.1968688964844,98.87999725341797 L388.8968811035156,101.09999084472656 " stroke="none" fill="#6E6E6E" fill-rule="evenodd" stroke-width="0" fill-opacity="1" />
  <path d="M388.8968811035156,101.09999084472656 L383.1968688964844,103.31999206542969 L383.1968688964844,98.87999725341797 L388.8968811035156,101.09999084472656 " stroke="#6E6E6E" fill="none" stroke-width="1" stroke-opacity="1" />
  <path d="M373.8968811035156,350.6999816894531 L383.1968688964844,350.6999816894531 " stroke="#6E6E6E" fill="none" stroke-width="1" stroke-opacity="1" />
  <path d="M388.8968811035156,350.6999816894531 L383.1968688964844,352.91998291015625 L383.1968688964844,348.4800109863281 L388.8968811035156,350.6999816894531 " stroke="none" fill="#6E6E6E" fill-rule="evenodd" stroke-width="0" fill-opacity="1" />
  <path d="M388.8968811035156,350.6999816894531 L383.1968688964844,352.91998291015625 L383.1968688964844,348.4800109863281 L388.8968811035156,350.6999816894531 " stroke="#6E6E6E" fill="none" stroke-width="1" stroke-opacity="1" />
  <path d="M373.8968811035156,413.0999755859375 L383.1968688964844,413.0999755859375 " stroke="#6E6E6E" fill="none" stroke-width="1" stroke-opacity="1" />
  <path d="M388.8968811035156,413.0999755859375 L383.1968688964844,415.3199768066406 L383.1968688964844,410.8800048828125 L388.8968811035156,413.0999755859375 " stroke="none" fill="#6E6E6E" fill-rule="evenodd" stroke-width="0" fill-opacity="1" />
  <path d="M388.8968811035156,413.0999755859375 L383.1968688964844,415.3199768066406 L383.1968688964844,410.8800048828125 L388.8968811035156,413.0999755859375 " stroke="#6E6E6E" fill="none" stroke-width="1" stroke-opacity="1" />
  <path d="M552.6968383789062,101.0999984741211 L561.996826171875,101.0999984741211 " stroke="#6E6E6E" fill="none" stroke-width="1" stroke-opacity="1" />
  <path d="M567.6968383789062,101.09999084472656 L561.996826171875,103.31999206542969 L561.996826171875,98.87999725341797 L567.6968383789062,101.09999084472656 " stroke="none" fill="#6E6E6E" fill-rule="evenodd" stroke-width="0" fill-opacity="1" />
  <path d="M567.6968383789062,101.09999084472656 L561.996826171875,103.31999206542969 L561.996826171875,98.87999725341797 L567.6968383789062,101.09999084472656 " stroke="#6E6E6E" fill="none" stroke-width="1" stroke-opacity="1" />
  <path d="M451.0923156738281,56.146480560302734 L478.259033203125,75.10850524902344 " stroke="#6E6E6E" fill="none" stroke-width="1" stroke-opacity="1" />
  <path d="M482.9330749511719,78.37091827392578 L476.9884033203125,76.92891693115234 L479.5296630859375,73.2880859375 L482.9330749511719,78.37091827392578 " stroke="none" fill="#6E6E6E" fill-rule="evenodd" stroke-width="0" fill-opacity="1" />
  <path d="M482.9330749511719,78.37091827392578 L476.9884033203125,76.92891693115234 L479.5296630859375,73.2880859375 L482.9330749511719,78.37091827392578 " stroke="#6E6E6E" fill="none" stroke-width="1" stroke-opacity="1" />
  <path d="M463.296875,101.0999984741211 L472.59686279296875,101.0999984741211 " stroke="#6E6E6E" fill="none" stroke-width="1" stroke-opacity="1" />
  <path d="M478.2968444824219,101.09999084472656 L472.5968322753906,103.31999206542969 L472.5968322753906,98.87999725341797 L478.2968444824219,101.09999084472656 " stroke="none" fill="#6E6E6E" fill-rule="evenodd" stroke-width="0" fill-opacity="1" />
  <path d="M478.2968444824219,101.09999084472656 L472.5968322753906,103.31999206542969 L472.5968322753906,98.87999725341797 L478.2968444824219,101.09999084472656 " stroke="#6E6E6E" fill="none" stroke-width="1" stroke-opacity="1" />
  <path d="M434.35894775390625,327.6327819824219 L505.08612060546875,130.16616821289062 " stroke="#6E6E6E" fill="none" stroke-width="1" stroke-opacity="1" />
  <path d="M507.00811767578125,124.79998779296875 L507.17608642578125,130.91473388671875 L502.9961242675781,129.41758728027344 L507.00811767578125,124.79998779296875 " stroke="none" fill="#6E6E6E" fill-rule="evenodd" stroke-width="0" fill-opacity="1" />
  <path d="M507.00811767578125,124.79998779296875 L507.17608642578125,130.91473388671875 L502.9961242675781,129.41758728027344 L507.00811767578125,124.79998779296875 " stroke="#6E6E6E" fill="none" stroke-width="1" stroke-opacity="1" />
  <path d="M432.7651062011719,389.8282775878906 L507.13580322265625,130.2794952392578 " stroke="#6E6E6E" fill="none" stroke-width="1" stroke-opacity="1" />
  <path d="M508.70587158203125,124.79999542236328 L509.2698974609375,130.8909912109375 L505.00164794921875,129.66798400878906 L508.70587158203125,124.79999542236328 " stroke="none" fill="#6E6E6E" fill-rule="evenodd" stroke-width="0" fill-opacity="1" />
  <path d="M508.70587158203125,124.79999542236328 L509.2698974609375,130.8909912109375 L505.00164794921875,129.66798400878906 L508.70587158203125,124.79999542236328 " stroke="#6E6E6E" fill="none" stroke-width="1" stroke-opacity="1" />
  <path d="M308.0008239746094,15 L365.3929443359375,15 L365.3929138183594,15 C370.0895080566406,14.999992370605469 373.8968505859375,18.807327270507812 373.8968505859375,23.50393295288086 C373.8968505859375,23.503934860229492 373.8968505859375,23.503936767578125 373.8968505859375,23.503938674926758 L373.8968811035156,23.503936767578125 L373.8968811035156,53.89606475830078 L373.8968505859375,53.89605712890625 C373.8968505859375,58.5926513671875 370.08953857421875,62.399993896484375 365.3929443359375,62.39999771118164 L365.3929443359375,62.39999771118164 L308.0008239746094,62.39999771118164 L308.0008239746094,62.39999771118164 C303.3042297363281,62.39999771118164 299.49688720703125,58.59265899658203 299.49688720703125,53.89606475830078 L299.49688720703125,23.503936767578125 L299.4968566894531,23.50394058227539 C299.4968566894531,18.80734634399414 303.30419921875,15.00000286102295 308.00079345703125,14.999999046325684 " stroke="none" fill="#F2E279" fill-rule="evenodd" stroke-width="0" fill-opacity="1" />
  <text x="21.89202308654785" y="27.96988296508789" dx="0" dy="0" font-family="Segoe UI" font-size="8.249999754130847pt" fill="#000000" style="text-anchor:start" transform="matrix(0.750000 0.000000 0.000000 0.750000 299.49688720703125 15)">Rescale by </text>
  <text x="26.64085578918457" y="42.599884033203125" dx="0" dy="0" font-family="Segoe UI" font-size="8.249999754130847pt" fill="#000000" style="text-anchor:start" transform="matrix(0.750000 0.000000 0.000000 0.750000 299.49688720703125 15)">Function</text>
  <path d="M308.0008239746094,15 L365.3929443359375,15 L365.3929138183594,15 C370.0895080566406,14.999992370605469 373.8968505859375,18.807327270507812 373.8968505859375,23.50393295288086 C373.8968505859375,23.503934860229492 373.8968505859375,23.503936767578125 373.8968505859375,23.503938674926758 L373.8968811035156,23.503936767578125 L373.8968811035156,53.89606475830078 L373.8968505859375,53.89605712890625 C373.8968505859375,58.5926513671875 370.08953857421875,62.399993896484375 365.3929443359375,62.39999771118164 L365.3929443359375,62.39999771118164 L308.0008239746094,62.39999771118164 L308.0008239746094,62.39999771118164 C303.3042297363281,62.39999771118164 299.49688720703125,58.59265899658203 299.49688720703125,53.89606475830078 L299.49688720703125,23.503936767578125 L299.4968566894531,23.50394058227539 C299.4968566894531,18.80734634399414 303.30419921875,15.00000286102295 308.00079345703125,14.999999046325684 " stroke="none" fill="none" stroke-width="0.75" stroke-opacity="0" />
  <path d="M463.2968444824219,38.69999313354492 C463.2968444824219,51.78913879394531 446.641845703125,62.399993896484375 426.0968933105469,62.39999771118164 C405.5518798828125,62.400001525878906 388.8968811035156,51.78915786743164 388.8968505859375,38.70001220703125 L388.8968505859375,38.700016021728516 C388.8968505859375,25.610868453979492 405.5518493652344,15.000008583068848 426.0968322753906,15 C446.6418151855469,14.99998950958252 463.2968444824219,25.61083221435547 463.2968444824219,38.69999694824219 C463.2968444824219,38.69999694824219 463.2968444824219,38.69999694824219 463.2968444824219,38.69999694824219 " stroke="none" fill="#83CC7C" fill-rule="evenodd" stroke-width="0" fill-opacity="1" />
  <text x="4.259189128875732" y="35.284881591796875" dx="0" dy="0" font-family="Segoe UI" font-size="8.249999754130847pt" fill="#000000" style="text-anchor:start" transform="matrix(0.750000 0.000000 0.000000 0.750000 388.8968811035156 15)">Ruggedness_Cost</text>
  <path d="M463.2968444824219,38.69999313354492 C463.2968444824219,51.78913879394531 446.641845703125,62.399993896484375 426.0968933105469,62.39999771118164 C405.5518798828125,62.400001525878906 388.8968811035156,51.78915786743164 388.8968505859375,38.70001220703125 L388.8968505859375,38.700016021728516 C388.8968505859375,25.610868453979492 405.5518493652344,15.000008583068848 426.0968322753906,15 C446.6418151855469,14.99998950958252 463.2968444824219,25.61083221435547 463.2968444824219,38.69999694824219 C463.2968444824219,38.69999694824219 463.2968444824219,38.69999694824219 463.2968444824219,38.69999694824219 " stroke="none" fill="none" stroke-width="0.75" stroke-opacity="0" />
  <path d="M308.0008239746094,77.39999389648438 L365.3929443359375,77.39999389648438 L365.3929138183594,77.39999389648438 C370.0895080566406,77.39998626708984 373.8968505859375,81.20732116699219 373.8968505859375,85.90392303466797 C373.8968505859375,85.90392303466797 373.8968505859375,85.9039306640625 373.8968505859375,85.9039306640625 L373.8968811035156,85.9039306640625 L373.8968811035156,116.29605865478516 L373.8968505859375,116.29605102539062 C373.8968505859375,120.99264526367188 370.08953857421875,124.79998779296875 365.3929443359375,124.79998779296875 L365.3929443359375,124.79998779296875 L308.0008239746094,124.79998779296875 L308.0008239746094,124.79998779296875 C303.3042297363281,124.79998779296875 299.49688720703125,120.9926528930664 299.49688720703125,116.29605865478516 L299.49688720703125,85.9039306640625 L299.4968566894531,85.9039306640625 C299.4968566894531,81.20733642578125 303.30419921875,77.39999389648438 308.00079345703125,77.39998626708984 " stroke="none" fill="#F2E279" fill-rule="evenodd" stroke-width="0" fill-opacity="1" />
  <text x="21.89202308654785" y="27.96988296508789" dx="0" dy="0" font-family="Segoe UI" font-size="8.249999754130847pt" fill="#000000" style="text-anchor:start" transform="matrix(0.750000 0.000000 0.000000 0.750000 299.49688720703125 77.39999389648438)">Rescale by </text>
  <text x="18.85085678100586" y="42.599884033203125" dx="0" dy="0" font-family="Segoe UI" font-size="8.249999754130847pt" fill="#000000" style="text-anchor:start" transform="matrix(0.750000 0.000000 0.000000 0.750000 299.49688720703125 77.39999389648438)">Function (2)</text>
  <path d="M308.0008239746094,77.39999389648438 L365.3929443359375,77.39999389648438 L365.3929138183594,77.39999389648438 C370.0895080566406,77.39998626708984 373.8968505859375,81.20732116699219 373.8968505859375,85.90392303466797 C373.8968505859375,85.90392303466797 373.8968505859375,85.9039306640625 373.8968505859375,85.9039306640625 L373.8968811035156,85.9039306640625 L373.8968811035156,116.29605865478516 L373.8968505859375,116.29605102539062 C373.8968505859375,120.99264526367188 370.08953857421875,124.79998779296875 365.3929443359375,124.79998779296875 L365.3929443359375,124.79998779296875 L308.0008239746094,124.79998779296875 L308.0008239746094,124.79998779296875 C303.3042297363281,124.79998779296875 299.49688720703125,120.9926528930664 299.49688720703125,116.29605865478516 L299.49688720703125,85.9039306640625 L299.4968566894531,85.9039306640625 C299.4968566894531,81.20733642578125 303.30419921875,77.39999389648438 308.00079345703125,77.39998626708984 " stroke="none" fill="none" stroke-width="0.75" stroke-opacity="0" />
  <path d="M463.2968444824219,101.09998321533203 C463.2968444824219,114.18913269042969 446.641845703125,124.79998779296875 426.0968933105469,124.79998779296875 C405.5518798828125,124.79999542236328 388.8968811035156,114.18914794921875 388.8968505859375,101.10000610351562 L388.8968505859375,101.10000610351562 C388.8968505859375,88.01085662841797 405.5518493652344,77.4000015258789 426.0968322753906,77.39999389648438 C446.6418151855469,77.39997863769531 463.2968444824219,88.01082611083984 463.2968444824219,101.09999084472656 C463.2968444824219,101.09999084472656 463.2968444824219,101.09999084472656 463.2968444824219,101.09999084472656 " stroke="none" fill="#83CC7C" fill-rule="evenodd" stroke-width="0" fill-opacity="1" />
  <text x="2.906022548675537" y="35.284881591796875" dx="0" dy="0" font-family="Segoe UI" font-size="8.249999754130847pt" fill="#000000" style="text-anchor:start" transform="matrix(0.750000 0.000000 0.000000 0.750000 388.8968811035156 77.39999389648438)">Distance_to_Roa</text>
  <text x="81.76319122314453" y="35.284881591796875" dx="0" dy="0" font-family="Segoe UI" font-size="8.249999754130847pt" fill="#000000" style="text-anchor:start" transform="matrix(0.750000 0.000000 0.000000 0.750000 388.8968811035156 77.39999389648438)"> ...</text>
  <path d="M463.2968444824219,101.09998321533203 C463.2968444824219,114.18913269042969 446.641845703125,124.79998779296875 426.0968933105469,124.79998779296875 C405.5518798828125,124.79999542236328 388.8968811035156,114.18914794921875 388.8968505859375,101.10000610351562 L388.8968505859375,101.10000610351562 C388.8968505859375,88.01085662841797 405.5518493652344,77.4000015258789 426.0968322753906,77.39999389648438 C446.6418151855469,77.39997863769531 463.2968444824219,88.01082611083984 463.2968444824219,101.09999084472656 C463.2968444824219,101.09999084472656 463.2968444824219,101.09999084472656 463.2968444824219,101.09999084472656 " stroke="none" fill="none" stroke-width="0.75" stroke-opacity="0" />
  <path d="M308.0008239746094,327 L365.3929443359375,327 L365.3929138183594,327 C370.0895080566406,326.9999694824219 373.8968505859375,330.80731201171875 373.8968505859375,335.50390625 C373.8968505859375,335.50390625 373.8968505859375,335.5039367675781 373.8968505859375,335.5039367675781 L373.8968811035156,335.5039367675781 L373.8968811035156,365.89605712890625 L373.8968505859375,365.89605712890625 C373.8968505859375,370.5926513671875 370.08953857421875,374.3999938964844 365.3929443359375,374.3999938964844 L365.3929443359375,374.3999938964844 L308.0008239746094,374.3999938964844 L308.0008239746094,374.3999938964844 C303.3042297363281,374.3999938964844 299.49688720703125,370.5926513671875 299.49688720703125,365.89605712890625 L299.49688720703125,335.5039367675781 L299.4968566894531,335.5039367675781 C299.4968566894531,330.8073425292969 303.30419921875,327 308.00079345703125,326.9999694824219 " stroke="none" fill="#F2E279" fill-rule="evenodd" stroke-width="0" fill-opacity="1" />
  <text x="24.12202262878418" y="35.284881591796875" dx="0" dy="0" font-family="Segoe UI" font-size="8.249999754130847pt" fill="#000000" style="text-anchor:start" transform="matrix(0.750000 0.000000 0.000000 0.750000 299.49688720703125 327)">Reclassify</text>
  <path d="M308.0008239746094,327 L365.3929443359375,327 L365.3929138183594,327 C370.0895080566406,326.9999694824219 373.8968505859375,330.80731201171875 373.8968505859375,335.50390625 C373.8968505859375,335.50390625 373.8968505859375,335.5039367675781 373.8968505859375,335.5039367675781 L373.8968811035156,335.5039367675781 L373.8968811035156,365.89605712890625 L373.8968505859375,365.89605712890625 C373.8968505859375,370.5926513671875 370.08953857421875,374.3999938964844 365.3929443359375,374.3999938964844 L365.3929443359375,374.3999938964844 L308.0008239746094,374.3999938964844 L308.0008239746094,374.3999938964844 C303.3042297363281,374.3999938964844 299.49688720703125,370.5926513671875 299.49688720703125,365.89605712890625 L299.49688720703125,335.5039367675781 L299.4968566894531,335.5039367675781 C299.4968566894531,330.8073425292969 303.30419921875,327 308.00079345703125,326.9999694824219 " stroke="none" fill="none" stroke-width="0.75" stroke-opacity="0" />
  <path d="M463.2968444824219,350.6999816894531 C463.2968444824219,363.78912353515625 446.641845703125,374.3999938964844 426.0968933105469,374.3999938964844 C405.5518798828125,374.3999938964844 388.8968811035156,363.7891540527344 388.8968505859375,350.70001220703125 L388.8968505859375,350.70001220703125 C388.8968505859375,337.61083984375 405.5518493652344,327 426.0968322753906,327 C446.6418151855469,326.9999694824219 463.2968444824219,337.6108093261719 463.2968444824219,350.6999816894531 C463.2968444824219,350.6999816894531 463.2968444824219,350.6999816894531 463.2968444824219,350.6999816894531 " stroke="none" fill="#83CC7C" fill-rule="evenodd" stroke-width="0" fill-opacity="1" />
  <text x="6.537689208984375" y="35.284881591796875" dx="0" dy="0" font-family="Segoe UI" font-size="8.249999754130847pt" fill="#000000" style="text-anchor:start" transform="matrix(0.750000 0.000000 0.000000 0.750000 388.8968811035156 327)">Land_Cover_Cost</text>
  <path d="M463.2968444824219,350.6999816894531 C463.2968444824219,363.78912353515625 446.641845703125,374.3999938964844 426.0968933105469,374.3999938964844 C405.5518798828125,374.3999938964844 388.8968811035156,363.7891540527344 388.8968505859375,350.70001220703125 L388.8968505859375,350.70001220703125 C388.8968505859375,337.61083984375 405.5518493652344,327 426.0968322753906,327 C446.6418151855469,326.9999694824219 463.2968444824219,337.6108093261719 463.2968444824219,350.6999816894531 C463.2968444824219,350.6999816894531 463.2968444824219,350.6999816894531 463.2968444824219,350.6999816894531 " stroke="none" fill="none" stroke-width="0.75" stroke-opacity="0" />
  <path d="M308.0008239746094,389.4000244140625 L365.3929443359375,389.4000244140625 L365.3929138183594,389.4000244140625 C370.0895080566406,389.3999938964844 373.8968505859375,393.20733642578125 373.8968505859375,397.9039306640625 C373.8968505859375,397.9039306640625 373.8968505859375,397.9039611816406 373.8968505859375,397.9039611816406 L373.8968811035156,397.9039611816406 L373.8968811035156,428.29608154296875 L373.8968505859375,428.29608154296875 C373.8968505859375,432.99267578125 370.08953857421875,436.8000183105469 365.3929443359375,436.8000183105469 L365.3929443359375,436.8000183105469 L308.0008239746094,436.8000183105469 L308.0008239746094,436.8000183105469 C303.3042297363281,436.8000183105469 299.49688720703125,432.99267578125 299.49688720703125,428.29608154296875 L299.49688720703125,397.9039611816406 L299.4968566894531,397.9039611816406 C299.4968566894531,393.2073669433594 303.30419921875,389.4000244140625 308.00079345703125,389.3999938964844 " stroke="none" fill="#F2E279" fill-rule="evenodd" stroke-width="0" fill-opacity="1" />
  <text x="16.332021713256836" y="35.284881591796875" dx="0" dy="0" font-family="Segoe UI" font-size="8.249999754130847pt" fill="#000000" style="text-anchor:start" transform="matrix(0.750000 0.000000 0.000000 0.750000 299.49688720703125 389.4000244140625)">Reclassify (2)</text>
  <path d="M308.0008239746094,389.4000244140625 L365.3929443359375,389.4000244140625 L365.3929138183594,389.4000244140625 C370.0895080566406,389.3999938964844 373.8968505859375,393.20733642578125 373.8968505859375,397.9039306640625 C373.8968505859375,397.9039306640625 373.8968505859375,397.9039611816406 373.8968505859375,397.9039611816406 L373.8968811035156,397.9039611816406 L373.8968811035156,428.29608154296875 L373.8968505859375,428.29608154296875 C373.8968505859375,432.99267578125 370.08953857421875,436.8000183105469 365.3929443359375,436.8000183105469 L365.3929443359375,436.8000183105469 L308.0008239746094,436.8000183105469 L308.0008239746094,436.8000183105469 C303.3042297363281,436.8000183105469 299.49688720703125,432.99267578125 299.49688720703125,428.29608154296875 L299.49688720703125,397.9039611816406 L299.4968566894531,397.9039611816406 C299.4968566894531,393.2073669433594 303.30419921875,389.4000244140625 308.00079345703125,389.3999938964844 " stroke="none" fill="none" stroke-width="0.75" stroke-opacity="0" />
  <path d="M463.2968444824219,413.1000061035156 C463.2968444824219,426.18914794921875 446.641845703125,436.8000183105469 426.0968933105469,436.8000183105469 C405.5518798828125,436.8000183105469 388.8968811035156,426.1891784667969 388.8968505859375,413.10003662109375 L388.8968505859375,413.10003662109375 C388.8968505859375,400.0108642578125 405.5518493652344,389.4000244140625 426.0968322753906,389.4000244140625 C446.6418151855469,389.3999938964844 463.2968444824219,400.0108337402344 463.2968444824219,413.1000061035156 C463.2968444824219,413.1000061035156 463.2968444824219,413.1000061035156 463.2968444824219,413.1000061035156 " stroke="none" fill="#83CC7C" fill-rule="evenodd" stroke-width="0" fill-opacity="1" />
  <text x="2.721522331237793" y="35.284881591796875" dx="0" dy="0" font-family="Segoe UI" font-size="8.249999754130847pt" fill="#000000" style="text-anchor:start" transform="matrix(0.750000 0.000000 0.000000 0.750000 388.8968811035156 389.4000244140625)">Protected_Status</text>
  <text x="82.71652221679688" y="35.284881591796875" dx="0" dy="0" font-family="Segoe UI" font-size="8.249999754130847pt" fill="#000000" style="text-anchor:start" transform="matrix(0.750000 0.000000 0.000000 0.750000 388.8968811035156 389.4000244140625)"> ...</text>
  <path d="M463.2968444824219,413.1000061035156 C463.2968444824219,426.18914794921875 446.641845703125,436.8000183105469 426.0968933105469,436.8000183105469 C405.5518798828125,436.8000183105469 388.8968811035156,426.1891784667969 388.8968505859375,413.10003662109375 L388.8968505859375,413.10003662109375 C388.8968505859375,400.0108642578125 405.5518493652344,389.4000244140625 426.0968322753906,389.4000244140625 C446.6418151855469,389.3999938964844 463.2968444824219,400.0108337402344 463.2968444824219,413.1000061035156 C463.2968444824219,413.1000061035156 463.2968444824219,413.1000061035156 463.2968444824219,413.1000061035156 " stroke="none" fill="none" stroke-width="0.75" stroke-opacity="0" />
  <path d="M486.80078125,77.39999389648438 L544.19287109375,77.39999389648438 L544.19287109375,77.39999389648438 C548.8894653320312,77.39998626708984 552.69677734375,81.20732116699219 552.69677734375,85.90392303466797 C552.69677734375,85.90392303466797 552.69677734375,85.9039306640625 552.69677734375,85.9039306640625 L552.6968383789062,85.9039306640625 L552.6968383789062,116.29605865478516 L552.69677734375,116.29605102539062 C552.69677734375,120.99264526367188 548.8894653320312,124.79998779296875 544.19287109375,124.79998779296875 L544.19287109375,124.79998779296875 L486.80078125,124.79998779296875 L486.80078125,124.79998779296875 C482.10418701171875,124.79998779296875 478.2968444824219,120.9926528930664 478.2968444824219,116.29605865478516 L478.2968444824219,85.9039306640625 L478.29681396484375,85.9039306640625 C478.29681396484375,81.20733642578125 482.1041564941406,77.39999389648438 486.8007507324219,77.39998626708984 " stroke="none" fill="#F2E279" fill-rule="evenodd" stroke-width="0" fill-opacity="1" />
  <text x="9.645689010620117" y="35.284881591796875" dx="0" dy="0" font-family="Segoe UI" font-size="8.249999754130847pt" fill="#000000" style="text-anchor:start" transform="matrix(0.750000 0.000000 0.000000 0.750000 478.2968444824219 77.39999389648438)">Weighted Sum</text>
  <path d="M486.80078125,77.39999389648438 L544.19287109375,77.39999389648438 L544.19287109375,77.39999389648438 C548.8894653320312,77.39998626708984 552.69677734375,81.20732116699219 552.69677734375,85.90392303466797 C552.69677734375,85.90392303466797 552.69677734375,85.9039306640625 552.69677734375,85.9039306640625 L552.6968383789062,85.9039306640625 L552.6968383789062,116.29605865478516 L552.69677734375,116.29605102539062 C552.69677734375,120.99264526367188 548.8894653320312,124.79998779296875 544.19287109375,124.79998779296875 L544.19287109375,124.79998779296875 L486.80078125,124.79998779296875 L486.80078125,124.79998779296875 C482.10418701171875,124.79998779296875 478.2968444824219,120.9926528930664 478.2968444824219,116.29605865478516 L478.2968444824219,85.9039306640625 L478.29681396484375,85.9039306640625 C478.29681396484375,81.20733642578125 482.1041564941406,77.39999389648438 486.8007507324219,77.39998626708984 " stroke="none" fill="none" stroke-width="0.75" stroke-opacity="0" />
  <path d="M642.0968017578125,101.09998321533203 C642.0968017578125,114.18913269042969 625.4417724609375,124.79998779296875 604.8968505859375,124.79998779296875 C584.351806640625,124.79999542236328 567.6968383789062,114.18914794921875 567.69677734375,101.10000610351562 L567.69677734375,101.10000610351562 C567.69677734375,88.01085662841797 584.351806640625,77.4000015258789 604.8967895507812,77.39999389648438 C625.4417724609375,77.39997863769531 642.0968017578125,88.01082611083984 642.0968017578125,101.09999084472656 C642.0968017578125,101.09999084472656 642.0968017578125,101.09999084472656 642.0968017578125,101.09999084472656 " stroke="none" fill="#83CC7C" fill-rule="evenodd" stroke-width="0" fill-opacity="1" />
  <text x="15.910355567932129" y="35.284881591796875" dx="0" dy="0" font-family="Segoe UI" font-size="8.249999754130847pt" fill="#000000" style="text-anchor:start" transform="matrix(0.750000 0.000000 0.000000 0.750000 567.6968383789062 77.39999389648438)">Cost_Surface</text>
  <path d="M642.0968017578125,101.09998321533203 C642.0968017578125,114.18913269042969 625.4417724609375,124.79998779296875 604.8968505859375,124.79998779296875 C584.351806640625,124.79999542236328 567.6968383789062,114.18914794921875 567.69677734375,101.10000610351562 L567.69677734375,101.10000610351562 C567.69677734375,88.01085662841797 584.351806640625,77.4000015258789 604.8967895507812,77.39999389648438 C625.4417724609375,77.39997863769531 642.0968017578125,88.01082611083984 642.0968017578125,101.09999084472656 C642.0968017578125,101.09999084472656 642.0968017578125,101.09999084472656 642.0968017578125,101.09999084472656 " stroke="none" fill="none" stroke-width="0.75" stroke-opacity="0" />
  <path d="M673.2365112304688,22.008216857910156 L847.5364990234375,22.008216857910156 L847.5364379882812,22.008216857910156 C849.6075439453125,22.00821304321289 851.2864379882812,23.68714141845703 851.2864379882812,25.758214950561523 C851.2864379882812,25.758214950561523 851.2864379882812,25.758216857910156 851.2864379882812,25.758216857910156 L851.2864990234375,25.758216857910156 L851.2864990234375,202.63552856445312 L851.2864379882812,202.63552856445312 C851.2864379882812,204.7065887451172 849.6075439453125,206.38552856445312 847.5364990234375,206.38552856445312 L847.5364990234375,206.38552856445312 L673.2365112304688,206.38552856445312 L673.2365112304688,206.38552856445312 C671.1654052734375,206.38552856445312 669.4865112304688,204.7065887451172 669.4865112304688,202.63552856445312 L669.4865112304688,25.758216857910156 L669.4864501953125,25.75821876525879 C669.4864501953125,23.687150955200195 671.1654052734375,22.008216857910156 673.2364501953125,22.008214950561523 " stroke="none" fill="none" fill-rule="evenodd" stroke-width="0" fill-opacity="0" />
  <path d="M669.4865112304688,22.008216857910156 L851.2864990234375,22.008216857910156 L851.2864990234375,36.18144226074219 L669.4865112304688,36.18144226074219  z" stroke="none" fill="#F2E279" fill-rule="evenodd" stroke-width="0" fill-opacity="1" />
  <text x="59.687992095947266" y="13.133702278137207" dx="0" dy="0" font-family="Segoe UI" font-size="8.249999754130847pt" fill="#000000" style="text-anchor:start" transform="matrix(0.750000 0.000000 0.000000 0.750000 669.4865112304688 22.008216857910156)">Find least</text>
  <text x="106.32866668701172" y="13.133702278137207" dx="0" dy="0" font-family="Segoe UI" font-size="8.249999754130847pt" fill="#000000" style="text-anchor:start" transform="matrix(0.750000 0.000000 0.000000 0.750000 669.4865112304688 22.008216857910156)">-</text>
  <text x="110.38766479492188" y="13.133702278137207" dx="0" dy="0" font-family="Segoe UI" font-size="8.249999754130847pt" fill="#000000" style="text-anchor:start" transform="matrix(0.750000 0.000000 0.000000 0.750000 669.4865112304688 22.008216857910156)">cost paths</text>
  <path d="M669.4865112304688,36.18144226074219 L851.2864990234375,36.18144226074219 " stroke="#F2E279" fill="none" stroke-width="5" stroke-opacity="1" />
  <path d="M673.2365112304688,22.008216857910156 L847.5364990234375,22.008216857910156 L847.5364379882812,22.008216857910156 C849.6075439453125,22.00821304321289 851.2864379882812,23.68714141845703 851.2864379882812,25.758214950561523 C851.2864379882812,25.758214950561523 851.2864379882812,25.758216857910156 851.2864379882812,25.758216857910156 L851.2864990234375,25.758216857910156 L851.2864990234375,202.63552856445312 L851.2864379882812,202.63552856445312 C851.2864379882812,204.7065887451172 849.6075439453125,206.38552856445312 847.5364990234375,206.38552856445312 L847.5364990234375,206.38552856445312 L673.2365112304688,206.38552856445312 L673.2365112304688,206.38552856445312 C671.1654052734375,206.38552856445312 669.4865112304688,204.7065887451172 669.4865112304688,202.63552856445312 L669.4865112304688,25.758216857910156 L669.4864501953125,25.75821876525879 C669.4864501953125,23.687150955200195 671.1654052734375,22.008216857910156 673.2364501953125,22.008214950561523 " stroke="#F2E279" fill="none" stroke-width="5" stroke-opacity="1" />
  <path d="M848.4517822265625,29.094829559326172 C848.4517822265625,31.443126678466797 846.5481567382812,33.346797943115234 844.1998291015625,33.346797943115234 C841.8515625,33.346797943115234 839.9478759765625,31.443126678466797 839.9478759765625,29.094829559326172 C839.9478759765625,26.746532440185547 841.8515625,24.84286117553711 844.1998291015625,24.84286117553711 C846.5481567382812,24.84286117553711 848.4517822265625,26.746532440185547 848.4517822265625,29.094829559326172 " stroke="none" fill="url(#Gradient2)" fill-rule="evenodd" stroke-width="0" fill-opacity="1" />
  <path d="M848.4517822265625,29.094829559326172 C848.4517822265625,31.443126678466797 846.5481567382812,33.346797943115234 844.1998291015625,33.346797943115234 C841.8515625,33.346797943115234 839.9478759765625,31.443126678466797 839.9478759765625,29.094829559326172 C839.9478759765625,26.746532440185547 841.8515625,24.84286117553711 844.1998291015625,24.84286117553711 C846.5481567382812,24.84286117553711 848.4517822265625,26.746532440185547 848.4517822265625,29.094829559326172 " stroke="#808080" fill="none" stroke-width="1" stroke-opacity="1" />
  <path d="M844.1998901367188,28.244436264038086 L842.4990844726562,29.94522476196289 " stroke="#000000" fill="none" stroke-width="1" stroke-opacity="1" />
  <path d="M844.1998901367188,28.244436264038086 L845.900634765625,29.94522476196289 " stroke="#000000" fill="none" stroke-width="1" stroke-opacity="1" />
  <path d="M844.1998901367188,29.744436264038086 L843.9990844726562,29.94522476196289 " stroke="#000000" fill="none" stroke-width="1" stroke-opacity="1" />
  <path d="M844.1998901367188,29.744436264038086 L844.400634765625,29.94522476196289 " stroke="#000000" fill="none" stroke-width="1" stroke-opacity="1" />
  <path d="M752.886474609375,87.50856018066406 L767.2750854492188,82.3741226196289 " stroke="#6E6E6E" fill="none" stroke-width="1" stroke-opacity="1" />
  <path d="M772.6434936523438,80.45844268798828 L768.0211181640625,84.4649887084961 L766.5289306640625,80.28325653076172 L772.6434936523438,80.45844268798828 " stroke="none" fill="#6E6E6E" fill-rule="evenodd" stroke-width="0" fill-opacity="1" />
  <path d="M772.6434936523438,80.45844268798828 L768.0211181640625,84.4649887084961 L766.5289306640625,80.28325653076172 L772.6434936523438,80.45844268798828 " stroke="#6E6E6E" fill="none" stroke-width="1" stroke-opacity="1" />
  <path d="M752.886474609375,113.47366333007812 L766.8987426757812,118.25386810302734 " stroke="#6E6E6E" fill="none" stroke-width="1" stroke-opacity="1" />
  <path d="M772.29345703125,120.09424591064453 L766.1819458007812,120.3549575805664 L767.615478515625,116.15275573730469 L772.29345703125,120.09424591064453 " stroke="none" fill="#6E6E6E" fill-rule="evenodd" stroke-width="0" fill-opacity="1" />
  <path d="M772.29345703125,120.09424591064453 L766.1819458007812,120.3549575805664 L767.615478515625,116.15275573730469 L772.29345703125,120.09424591064453 " stroke="#6E6E6E" fill="none" stroke-width="1" stroke-opacity="1" />
  <path d="M716.531494140625,150.0116424560547 L716.1911010742188,130.18222045898438 " stroke="#6E6E6E" fill="none" stroke-width="1" stroke-opacity="1" />
  <path d="M716.09326171875,124.4830551147461 L718.4107666015625,130.14410400390625 L713.971435546875,130.22030639648438 L716.09326171875,124.4830551147461 " stroke="none" fill="#6E6E6E" fill-rule="evenodd" stroke-width="0" fill-opacity="1" />
  <path d="M716.09326171875,124.4830551147461 L718.4107666015625,130.14410400390625 L713.971435546875,130.22030639648438 L716.09326171875,124.4830551147461 " stroke="#6E6E6E" fill="none" stroke-width="1" stroke-opacity="1" />
  <path d="M754.1378784179688,173.68553161621094 C754.1378784179688,186.77468872070312 737.4828491210938,197.3855438232422 716.9379272460938,197.3855438232422 C696.3928833007812,197.3855438232422 679.7379150390625,186.7747039794922 679.7378540039062,173.68556213378906 L679.7378540039062,173.68556213378906 C679.7378540039062,160.59640502929688 696.3928833007812,149.9855499267578 716.9378662109375,149.9855499267578 C737.4828491210938,149.98553466796875 754.1378784179688,160.59637451171875 754.1378784179688,173.685546875 C754.1378784179688,173.685546875 754.1378784179688,173.685546875 754.1378784179688,173.685546875 " stroke="none" fill="#70AECC" fill-rule="evenodd" stroke-width="0" fill-opacity="1" />
  <text x="10.483688354492188" y="27.96988296508789" dx="0" dy="0" font-family="Segoe UI" font-size="8.249999754130847pt" fill="#000000" style="text-anchor:start" transform="matrix(0.750000 0.000000 0.000000 0.750000 679.7379150390625 149.9855499267578)">Core Mountain </text>
  <text x="15.827688217163086" y="42.599884033203125" dx="0" dy="0" font-family="Segoe UI" font-size="8.249999754130847pt" fill="#000000" style="text-anchor:start" transform="matrix(0.750000 0.000000 0.000000 0.750000 679.7379150390625 149.9855499267578)">Lion Habitats</text>
  <path d="M754.1378784179688,173.68553161621094 C754.1378784179688,186.77468872070312 737.4828491210938,197.3855438232422 716.9379272460938,197.3855438232422 C696.3928833007812,197.3855438232422 679.7379150390625,186.7747039794922 679.7378540039062,173.68556213378906 L679.7378540039062,173.68556213378906 C679.7378540039062,160.59640502929688 696.3928833007812,149.9855499267578 716.9378662109375,149.9855499267578 C737.4828491210938,149.98553466796875 754.1378784179688,160.59637451171875 754.1378784179688,173.685546875 C754.1378784179688,173.685546875 754.1378784179688,173.685546875 754.1378784179688,173.685546875 " stroke="none" fill="none" stroke-width="0.75" stroke-opacity="0" />
  <path d="M686.9904174804688,77.08306121826172 L744.382568359375,77.08306121826172 L744.3825073242188,77.08306121826172 C749.0791015625,77.08305358886719 752.886474609375,80.89038848876953 752.886474609375,85.58699035644531 C752.886474609375,85.58699035644531 752.886474609375,85.58699798583984 752.886474609375,85.58699798583984 L752.886474609375,85.58699798583984 L752.886474609375,115.9791259765625 L752.886474609375,115.97911834716797 C752.886474609375,120.67571258544922 749.0791625976562,124.4830551147461 744.382568359375,124.4830551147461 L744.382568359375,124.4830551147461 L686.9904174804688,124.4830551147461 L686.9904174804688,124.4830551147461 C682.2938232421875,124.4830551147461 678.4865112304688,120.67572021484375 678.4865112304688,115.9791259765625 L678.4865112304688,85.58699798583984 L678.4864501953125,85.58699798583984 C678.4864501953125,80.8904037475586 682.2938232421875,77.08306121826172 686.9904174804688,77.08305358886719 " stroke="none" fill="#F2E279" fill-rule="evenodd" stroke-width="0" fill-opacity="1" />
  <text x="8.301188468933105" y="27.96988296508789" dx="0" dy="0" font-family="Segoe UI" font-size="8.249999754130847pt" fill="#000000" style="text-anchor:start" transform="matrix(0.750000 0.000000 0.000000 0.750000 678.4865112304688 77.08306121826172)">Optimal Region </text>
  <text x="16.76702308654785" y="42.599884033203125" dx="0" dy="0" font-family="Segoe UI" font-size="8.249999754130847pt" fill="#000000" style="text-anchor:start" transform="matrix(0.750000 0.000000 0.000000 0.750000 678.4865112304688 77.08306121826172)">Connections</text>
  <path d="M686.9904174804688,77.08306121826172 L744.382568359375,77.08306121826172 L744.3825073242188,77.08306121826172 C749.0791015625,77.08305358886719 752.886474609375,80.89038848876953 752.886474609375,85.58699035644531 C752.886474609375,85.58699035644531 752.886474609375,85.58699798583984 752.886474609375,85.58699798583984 L752.886474609375,85.58699798583984 L752.886474609375,115.9791259765625 L752.886474609375,115.97911834716797 C752.886474609375,120.67571258544922 749.0791625976562,124.4830551147461 744.382568359375,124.4830551147461 L744.382568359375,124.4830551147461 L686.9904174804688,124.4830551147461 L686.9904174804688,124.4830551147461 C682.2938232421875,124.4830551147461 678.4865112304688,120.67572021484375 678.4865112304688,115.9791259765625 L678.4865112304688,85.58699798583984 L678.4864501953125,85.58699798583984 C678.4864501953125,80.8904037475586 682.2938232421875,77.08306121826172 686.9904174804688,77.08305358886719 " stroke="none" fill="none" stroke-width="0.75" stroke-opacity="0" />
  <path d="M842.2864990234375,68.88143920898438 C842.2864990234375,81.9705810546875 825.6314697265625,92.58143615722656 805.0865478515625,92.5814437866211 C784.54150390625,92.5814437866211 767.8865356445312,81.9706039428711 767.886474609375,68.88145446777344 L767.886474609375,68.88146209716797 C767.886474609375,55.79231262207031 784.54150390625,45.181453704833984 805.0864868164062,45.18144607543945 C825.6314697265625,45.181434631347656 842.2864990234375,55.79227828979492 842.2864990234375,68.88143920898438 C842.2864990234375,68.88143920898438 842.2864990234375,68.88143920898438 842.2864990234375,68.88143920898438 " stroke="none" fill="#83CC7C" fill-rule="evenodd" stroke-width="0" fill-opacity="1" />
  <text x="0.12918901443481445" y="35.284881591796875" dx="0" dy="0" font-family="Segoe UI" font-size="8.249999754130847pt" fill="#000000" style="text-anchor:start" transform="matrix(0.750000 0.000000 0.000000 0.750000 767.8865356445312 45.18144607543945)">Mountain_Lion_P</text>
  <text x="83.45652770996094" y="35.284881591796875" dx="0" dy="0" font-family="Segoe UI" font-size="8.249999754130847pt" fill="#000000" style="text-anchor:start" transform="matrix(0.750000 0.000000 0.000000 0.750000 767.8865356445312 45.18144607543945)"> ...</text>
  <path d="M842.2864990234375,68.88143920898438 C842.2864990234375,81.9705810546875 825.6314697265625,92.58143615722656 805.0865478515625,92.5814437866211 C784.54150390625,92.5814437866211 767.8865356445312,81.9706039428711 767.886474609375,68.88145446777344 L767.886474609375,68.88146209716797 C767.886474609375,55.79231262207031 784.54150390625,45.181453704833984 805.0864868164062,45.18144607543945 C825.6314697265625,45.181434631347656 842.2864990234375,55.79227828979492 842.2864990234375,68.88143920898438 C842.2864990234375,68.88143920898438 842.2864990234375,68.88143920898438 842.2864990234375,68.88143920898438 " stroke="none" fill="none" stroke-width="0.75" stroke-opacity="0" />
  <path d="M842.2864990234375,131.28143310546875 C842.2864990234375,144.37057495117188 825.6314697265625,154.98143005371094 805.0865478515625,154.98143005371094 C784.54150390625,154.9814453125 767.8865356445312,144.37059020996094 767.886474609375,131.2814483642578 L767.886474609375,131.2814483642578 C767.886474609375,118.19230651855469 784.54150390625,107.58145141601562 805.0864868164062,107.5814437866211 C825.6314697265625,107.58142852783203 842.2864990234375,118.19227600097656 842.2864990234375,131.28143310546875 C842.2864990234375,131.28143310546875 842.2864990234375,131.28143310546875 842.2864990234375,131.28143310546875 " stroke="none" fill="#83CC7C" fill-rule="evenodd" stroke-width="0" fill-opacity="1" />
  <text x="0.12918901443481445" y="35.284881591796875" dx="0" dy="0" font-family="Segoe UI" font-size="8.249999754130847pt" fill="#000000" style="text-anchor:start" transform="matrix(0.750000 0.000000 0.000000 0.750000 767.8865356445312 107.5814437866211)">Mountain_Lion_P</text>
  <text x="83.45652770996094" y="35.284881591796875" dx="0" dy="0" font-family="Segoe UI" font-size="8.249999754130847pt" fill="#000000" style="text-anchor:start" transform="matrix(0.750000 0.000000 0.000000 0.750000 767.8865356445312 107.5814437866211)"> ...</text>
  <path d="M842.2864990234375,131.28143310546875 C842.2864990234375,144.37057495117188 825.6314697265625,154.98143005371094 805.0865478515625,154.98143005371094 C784.54150390625,154.9814453125 767.8865356445312,144.37059020996094 767.886474609375,131.2814483642578 L767.886474609375,131.2814483642578 C767.886474609375,118.19230651855469 784.54150390625,107.58145141601562 805.0864868164062,107.5814437866211 C825.6314697265625,107.58142852783203 842.2864990234375,118.19227600097656 842.2864990234375,131.28143310546875 C842.2864990234375,131.28143310546875 842.2864990234375,131.28143310546875 842.2864990234375,131.28143310546875 " stroke="none" fill="none" stroke-width="0.75" stroke-opacity="0" />
</svg>